<?xml version="1.0" encoding="utf-8"?>
<!-- Generator: Adobe Illustrator 25.4.1, SVG Export Plug-In . SVG Version: 6.00 Build 0)  -->
<svg version="1.1" id="Layer_1" xmlns="http://www.w3.org/2000/svg" xmlns:xlink="http://www.w3.org/1999/xlink" x="0px" y="0px"
	 width="375.34px" height="60px" viewBox="0 0 375.34 60" enable-background="new 0 0 375.34 60" xml:space="preserve">
<g>
	<path fill="#FFFFFF" d="M31.75,42.05L31.75,42.05L28.2,42.1c-0.95,0-1.75,0.8-1.75,1.8c0,0.95,0.8,1.75,1.75,1.75h0.05l3.5-0.05
		c0.95,0,1.75-0.8,1.75-1.8S32.7,42.05,31.75,42.05z"/>
	<path fill="#FFFFFF" d="M26.2,36.8c0,0.95,0.8,1.75,1.75,1.75h4.1c0.95,0,1.75-0.8,1.75-1.75v-6.35h3.35c0.95,0,1.75-0.8,1.75-1.75
		s-0.8-1.75-1.75-1.75h-5.1c-0.95,0-1.75,0.8-1.75,1.75v6.35h-2.35C27,35.05,26.2,35.85,26.2,36.8z"/>
	<path fill="#FFFFFF" d="M22.8,30.45H25c0.95,0,1.75-0.8,1.75-1.75s-0.8-1.75-1.75-1.75h-2.2c-0.95,0-1.75,0.8-1.75,1.75
		C21.05,29.7,21.85,30.45,22.8,30.45z"/>
	<path fill="#FFFFFF" d="M51.75,35.55c-2.05-0.2-4-0.4-5.75-1.85c0.6-1,1.05-2,1.45-3.1c0.9-0.2,2.45-0.45,3.75,0.3
		c0.9,0.5,2.05,0.75,3.2,0.75c1.95,0,3.9-0.75,4.85-2.3c1.45-2.4,0.75-5.7-1.5-7.05c-0.85-0.5-1.9-0.25-2.4,0.6s-0.25,1.9,0.6,2.4
		c0.55,0.35,0.8,1.45,0.3,2.25c-0.35,0.55-2.2,0.9-3.35,0.3c-1.55-0.85-3.15-1-4.55-0.9c0.1-0.85,0.2-1.75,0.2-2.65
		s-0.05-1.8-0.2-2.65c2.3-0.6,4-1.65,5.1-3.25s3.3-3,4.75-3c0.95,0,1.75-0.8,1.75-1.75c0-0.95-0.8-1.75-1.75-1.75
		c-2.95,0-6.15,2.35-7.65,4.5c-0.6,0.85-1.6,1.45-3.05,1.85c-0.5-1.4-1.15-2.75-1.95-4c0.95-0.3,1.85-0.8,2.6-1.4
		c1.65-1.35,2.6-3.2,2.6-5.3c0-2.9,1.5-3.65,2.4-3.85s1.9,0,2.55,0.5c0.5,0.4,0.75,0.95,0.75,1.6c0,0.95,0.8,1.75,1.75,1.75
		s1.75-0.8,1.75-1.75c0-1.75-0.75-3.3-2.1-4.35c-1.5-1.2-3.55-1.65-5.5-1.2c-1.4,0.3-2.65,1.1-3.55,2.2c-1.05,1.3-1.55,3-1.6,5.05
		c0,2.2-2,3.45-4.2,3.7c-1.05-1.05-2.25-2-3.55-2.75c1.3-0.8,3.3-2.2,3.3-5.75c0-0.95-0.8-1.75-1.75-1.75s-1.75,0.8-1.75,1.75
		c0,1.75-0.7,2.15-1.8,2.85c-0.5,0.3-1.1,0.65-1.6,1.2c-1.15-0.4-2.35-0.65-3.6-0.85c0.45-1.5,1.15-2.3,1.55-2.55
		c-0.05,0-0.05,0.05-0.05,0.05c2.25-0.85,1.05-4.1-1.5-3.2c-0.35,0.15-2.6,1.35-3.6,5.6c-3.1,0.2-6,1.2-8.55,2.75
		c-0.15-1,0-2,0.5-2.9c0.75-1.35,2.2-2.1,4.05-2.1c0.95,0,1.75-0.8,1.75-1.75c0.1-1-0.7-1.8-1.65-1.8C21.6,0,19,1.45,17.6,3.9
		c-1.2,2.1-1.3,4.65-0.4,6.95c-0.65,0.6-1.25,1.3-1.8,2c-1.15-0.2-1.95-0.55-2.45-1.05C12.3,11.15,12,9.95,12,7.9C12,3.1,8,0,1.8,0
		C0.8,0,0,0.8,0,1.75S0.8,3.5,1.8,3.5c1.55,0,6.7,0.3,6.7,4.4c0,2.15,0.25,4.6,2,6.35c0.75,0.75,1.7,1.3,2.95,1.7
		c-0.65,1.3-1.15,2.65-1.5,4.05c-2.6,0.3-5.05-0.2-6.55-1.45c-1.25-1-1.85-2.5-1.85-4.45c0-1.9,0.7-2.65,0.75-2.65
		C4.25,11.5,4.25,11.5,4.25,11.5c2-1.75-0.35-4.4-2.3-2.65C1.8,8.95,1.35,9.4,0.9,10.3C0.3,11.4,0,12.7,0,14.15
		c0,3,1.1,5.45,3.15,7.15c1.85,1.5,4.45,2.35,7.3,2.35c0.3,0,0.65,0,1-0.05c0,0.25,0,0.45,0,0.7c0,1.2,0.1,2.4,0.35,3.55
		c-1.25,0.55-2.2,1.55-3,2.4C7.7,31.4,6.95,32.1,5.9,32.1c-1.2,0-1.8-0.55-2.1-1.05C3.45,30.5,3.45,29.9,3.65,29.6
		c0.5-0.85,0.15-1.9-0.65-2.4c-0.85-0.45-1.9-0.15-2.4,0.65c-0.8,1.45-0.75,3.35,0.2,4.95c1.05,1.8,2.9,2.8,5.1,2.8
		c2.65,0,4.2-1.65,5.45-2.95c0.6-0.6,1.05-1.1,1.45-1.4c0.35,0.85,0.75,1.7,1.25,2.5v1.1c-0.75,1.65-2.1,4.4-6.1,4.95
		C2.1,40.65,0,44,0,46.6c0,0.95,0.8,1.75,1.75,1.75s1.75-0.8,1.75-1.75c0-1.3,1.5-2.85,4.9-3.3c2.4-0.35,4.45-1.3,6.05-2.9
		c0.25,1.25,0.65,2.45,1.15,3.6c-0.4,1.75-2.7,2.95-4.8,3.15c-0.95,0.1-1.7,0.95-1.6,1.9c0.1,0.9,0.85,1.6,1.75,1.6
		c0.05,0,0.1,0,0.15,0c2.4-0.2,4.5-1.15,5.95-2.55v10.15c0,0.95,0.8,1.75,1.75,1.75H41c0.95,0,1.75-0.8,1.75-1.75V46.8
		c0.35-0.6,0.7-1.2,1-1.8c1.6,1.95,3.5,3.1,6.45,3.35c0.75,0.05,1.3,0.35,1.7,0.85c0.3,0.45,0.4,0.85,0.4,0.9v-0.05
		c0.35,2.25,3.85,1.7,3.45-0.55c-0.25-1.45-1.65-4.35-5.25-4.65c-2.35-0.2-3.6-1.05-5.25-3.9c0.25-1.05,0.45-2.1,0.55-3.2
		c1.95,0.95,3.85,1.1,5.5,1.3c2.85,0.3,4.3,0.4,5.1,3.5c0.2,0.8,0.9,1.3,1.7,1.3c0.15,0,0.3,0,0.45-0.05
		c0.95-0.25,1.5-1.2,1.25-2.15C58.45,36.25,54.75,35.85,51.75,35.55z M18.25,16.55c1.6,0,2.5,0.25,2.85,0.4
		c0.2,0.75,0.9,1.3,1.7,1.3c0.95,0,1.75-0.8,1.75-1.75c0-2-1.9-2.8-2.75-3.05c-0.6-0.2-1.25-0.3-1.9-0.35
		c2.25-2.05,5.15-3.4,8.35-3.8c0,0.3,0,0.6,0,0.9c0,0.95,0.8,1.75,1.75,1.75c0.95,0,1.75-0.8,1.75-1.75c0-0.3,0-0.6,0-0.85
		c2.6,0.3,4.95,1.25,7,2.7c-0.25,0.1-0.45,0.2-0.7,0.35c-1.9,1.05-3,2.5-3,4.1c0,0.95,0.8,1.75,1.75,1.75s1.75-0.8,1.75-1.75
		c0-0.1,0.3-0.55,1.25-1.05c0.6-0.35,1.3-0.55,1.8-0.65c0.95,1.15,1.7,2.45,2.3,3.85c-0.1,0-0.15,0-0.25,0
		c-0.95,0-1.75,0.8-1.75,1.75s0.8,1.75,1.75,1.75c0.4,0,0.8,0,1.2-0.05c0.1,0.7,0.15,1.45,0.15,2.2s-0.05,1.5-0.15,2.2
		c-0.2-0.1-0.45-0.15-0.65-0.15c-0.95,0-1.75,0.8-1.75,1.75v5c0,0.05,0,0.15,0,0.2v2.8c0,3.15-0.95,6.4-2.75,9.05
		c-0.05,0.05-0.05,0.1-0.1,0.15c-2.15,3.1-5.45,5.3-9.6,5.3s-7.45-2.2-9.6-5.3c-0.05-0.05-0.05-0.1-0.1-0.15
		c-1.8-2.65-2.75-5.9-2.75-9.05v-8c0-0.95-0.8-1.75-1.75-1.75c-0.25,0-0.45,0.05-0.65,0.15c-0.1-0.75-0.15-1.45-0.15-2.2
		c0-0.25,0-0.55,0-0.8l1.9,0.1c0.95,0.05,1.8-0.7,1.85-1.65c0.05-0.95-0.7-1.8-1.65-1.85L15.6,20c0.35-1.2,0.9-2.4,1.55-3.45
		C17.45,16.55,17.85,16.55,18.25,16.55z M20.65,56.5v-5.7c2.65,2.2,5.9,3.35,9.35,3.35s6.7-1.15,9.35-3.35v5.7H20.65z"/>
</g>
<g>
	<g>
		<path fill="#FFFFFF" d="M96.43,13.55l4.51,19.78l5.09-19.78h9.98v32.02h-6.58V18.73l-6.53,26.83h-5.14l-5.95-26.83v26.83h-5.71
			V13.55H96.43z"/>
		<path fill="#FFFFFF" d="M141.5,13.55v5.52h-12.43v7.39h9.65v5.52h-9.65v7.87h12.43v5.71h-19.44V13.55H141.5z"/>
		<path fill="#FFFFFF" d="M144.95,13.55h7.54c4.9,0,14.83,0.05,14.83,15.79c0,6-1.78,11.38-5.23,14.02
			c-2.83,2.21-6.29,2.21-8.74,2.21h-8.4V13.55z M151.96,40.05h1.2c2.78,0,6.72-0.34,6.72-10.8c0-9.84-3.89-10.18-6.72-10.18h-1.2
			V40.05z"/>
		<path fill="#FFFFFF" d="M178.94,13.55v18.29c0,4.66,0,8.5,4.56,8.5c2.16,0,3.17-1.01,3.7-2.11c0.58-1.25,0.58-2.88,0.58-6.38
			V13.55h5.91v18c0,5.67,0,10.08-3.89,12.67c-1.49,0.96-3.6,1.82-6.91,1.82c-10.9,0-10.94-7.39-10.94-14.21V13.55H178.94z"/>
		<path fill="#FFFFFF" d="M213.45,22.77c-0.38-1.15-1.3-3.98-4.51-3.98c-2.35,0-3.36,1.63-3.36,2.93c0,2.21,2.11,2.98,5.52,4.27
			c3.6,1.39,8.83,3.36,8.83,9.84c0,5.47-3.84,10.23-11.38,10.23c-2.3,0-5.76-0.43-8.35-3.36c-1.78-2.06-2.35-4.03-2.74-5.42
			l6.14-1.73c0.38,1.44,1.3,4.8,5.14,4.8c2.4,0,4.08-1.34,4.08-3.46c0-2.26-2.02-3.17-4.42-4.03c-4.37-1.58-9.65-3.46-9.65-9.98
			c0-4.99,3.22-9.79,10.22-9.79c7.97,0,9.65,5.33,10.32,7.44L213.45,22.77z"/>
		<path fill="#FFFFFF" d="M236.97,13.55l9.12,32.02h-7.15l-1.63-6.58h-8.98l-1.58,6.58h-6.48l9.6-32.02H236.97z M236.01,33.47
			l-3.22-13.06l-3.12,13.06H236.01z"/>
	</g>
	<g>
		<path fill="#FFFFFF" d="M253.8,30.71v-3.83h3.91v3.83H253.8z M257.68,31.89v13.88h-3.85V31.89H257.68z"/>
		<path fill="#FFFFFF" d="M264.18,31.89v1.89c0.56-1.15,1.29-2.2,3.46-2.2c0.53,0,2.11,0,3.07,1.46c0.56,0.87,0.56,2.22,0.56,3.6
			v9.12h-3.85v-9.12c0-1.24-0.11-2.05-1.32-2.05c-1.72,0-1.72,1.35-1.72,3.04v8.13h-3.85V31.89H264.18z"/>
		<path fill="#FFFFFF" d="M287.88,37.13c-0.14-2-0.62-2.59-1.52-2.59c-1.15,0-1.94,0.93-1.94,4.11c0,2.08,0.22,4.28,1.86,4.28
			c1.24,0,1.52-1.13,1.61-2.56l3.6,0.22c-0.17,1.44-0.59,5.46-5.43,5.46c-4.73,0-5.52-4.25-5.52-7.2c0-3.74,1.35-7.26,5.71-7.26
			c1.27,0,2.65,0.25,3.74,1.44c1.29,1.41,1.41,2.79,1.49,3.97L287.88,37.13z"/>
		<path fill="#FFFFFF" d="M304.25,38.82c0,4.45-1.6,7.23-5.66,7.23c-4,0-5.63-2.76-5.63-7.23c0-4.34,1.52-7.23,5.66-7.23
			C302.73,31.58,304.25,34.48,304.25,38.82z M298.6,34.28c-1.24,0-1.63,1.12-1.63,4.53c0,3.69,0.51,4.53,1.66,4.53
			c1.12,0,1.63-0.82,1.63-4.53c0-3.57-0.45-4.53-1.63-4.53H298.6z"/>
		<path fill="#FFFFFF" d="M310.19,31.89v1.89c0.56-1.15,1.29-2.2,3.46-2.2c0.53,0,2.11,0,3.07,1.46c0.56,0.87,0.56,2.22,0.56,3.6
			v9.12h-3.85v-9.12c0-1.24-0.11-2.05-1.32-2.05c-1.72,0-1.72,1.35-1.72,3.04v8.13h-3.85V31.89H310.19z"/>
		<path fill="#FFFFFF" d="M324.29,27.5v4.39h2.56v3.04h-2.56v5.09c0,2.62,0,2.95,2.76,2.79v2.95c-0.56,0.11-1.35,0.28-2.39,0.28
			c-1.27,0-2.67-0.31-3.46-1.44c-0.67-0.99-0.67-2.39-0.67-4.17v-5.52H319v-3.04h1.72l0.31-4.08L324.29,27.5z"/>
		<path fill="#FFFFFF" d="M332,31.89v3.35c0.34-1.18,1.01-3.55,3.26-3.55c0.28,0,0.48,0.03,0.68,0.08v3.77
			c-0.34-0.06-0.51-0.06-0.65-0.06c-2.84,0-2.84,3.21-2.84,4.28v5.99h-3.85V31.89H332z"/>
		<path fill="#FFFFFF" d="M347.9,38.82c0,4.45-1.6,7.23-5.66,7.23c-4,0-5.63-2.76-5.63-7.23c0-4.34,1.52-7.23,5.66-7.23
			C346.38,31.58,347.9,34.48,347.9,38.82z M342.24,34.28c-1.24,0-1.63,1.12-1.63,4.53c0,3.69,0.51,4.53,1.66,4.53
			c1.12,0,1.63-0.82,1.63-4.53c0-3.57-0.45-4.53-1.63-4.53H342.24z"/>
		<path fill="#FFFFFF" d="M354.04,26.99v18.77h-3.85V26.99H354.04z"/>
		<path fill="#FFFFFF" d="M360.99,41.6v4.17h-3.83V41.6H360.99z"/>
		<path fill="#FFFFFF" d="M368.16,41.6v4.17h-3.83V41.6H368.16z"/>
		<path fill="#FFFFFF" d="M375.34,41.6v4.17h-3.83V41.6H375.34z"/>
	</g>
</g>
</svg>
