<?xml version="1.0" encoding="utf-8"?>
<!-- Generator: Adobe Illustrator 25.4.1, SVG Export Plug-In . SVG Version: 6.00 Build 0)  -->
<svg version="1.1" id="Layer_1" xmlns="http://www.w3.org/2000/svg" xmlns:xlink="http://www.w3.org/1999/xlink" x="0px" y="0px"
	 width="80px" height="79.99px" viewBox="0 0 80 79.99" enable-background="new 0 0 80 79.99" xml:space="preserve">
<g>
	<path fill="#FFFFFF" d="M42.33,56.06L42.33,56.06l-4.73,0.07c-1.27,0-2.33,1.07-2.33,2.4c0,1.27,1.07,2.33,2.33,2.33h0.07
		l4.67-0.07c1.27,0,2.33-1.07,2.33-2.4S43.59,56.06,42.33,56.06z"/>
	<path fill="#FFFFFF" d="M34.93,49.06c0,1.27,1.07,2.33,2.33,2.33h5.47c1.27,0,2.33-1.07,2.33-2.33v-8.47h4.47
		c1.27,0,2.33-1.07,2.33-2.33s-1.07-2.33-2.33-2.33h-6.8c-1.27,0-2.33,1.07-2.33,2.33v8.47h-3.13C36,46.73,34.93,47.79,34.93,49.06z
		"/>
	<path fill="#FFFFFF" d="M30.4,40.59h2.93c1.27,0,2.33-1.07,2.33-2.33s-1.07-2.33-2.33-2.33H30.4c-1.27,0-2.33,1.07-2.33,2.33
		C28.06,39.59,29.13,40.59,30.4,40.59z"/>
	<path fill="#FFFFFF" d="M68.99,47.39c-2.73-0.27-5.33-0.53-7.67-2.47c0.8-1.33,1.4-2.67,1.93-4.13c1.2-0.27,3.27-0.6,5,0.4
		c1.2,0.67,2.73,1,4.27,1c2.6,0,5.2-1,6.47-3.07c1.93-3.2,1-7.6-2-9.4c-1.13-0.67-2.53-0.33-3.2,0.8c-0.67,1.13-0.33,2.53,0.8,3.2
		c0.73,0.47,1.07,1.93,0.4,3c-0.47,0.73-2.93,1.2-4.47,0.4c-2.07-1.13-4.2-1.33-6.07-1.2c0.13-1.13,0.27-2.33,0.27-3.53
		c0-1.2-0.07-2.4-0.27-3.53c3.07-0.8,5.33-2.2,6.8-4.33c1.47-2.13,4.4-4,6.33-4c1.27,0,2.33-1.07,2.33-2.33s-1.07-2.33-2.33-2.33
		c-3.93,0-8.2,3.13-10.2,6c-0.8,1.13-2.13,1.93-4.07,2.47c-0.67-1.87-1.53-3.67-2.6-5.33c1.27-0.4,2.47-1.07,3.47-1.87
		c2.2-1.8,3.47-4.27,3.47-7.07c0-3.87,2-4.87,3.2-5.13s2.53,0,3.4,0.67c0.67,0.53,1,1.27,1,2.13c0,1.27,1.07,2.33,2.33,2.33
		c1.27,0,2.33-1.07,2.33-2.33c0-2.33-1-4.4-2.8-5.8c-2-1.6-4.73-2.2-7.33-1.6c-1.87,0.4-3.53,1.47-4.73,2.93
		c-1.4,1.73-2.07,4-2.13,6.73c0,2.93-2.67,4.6-5.6,4.93c-1.4-1.4-3-2.67-4.73-3.67c1.73-1.07,4.4-2.93,4.4-7.67
		c0-1.27-1.07-2.33-2.33-2.33c-1.27,0-2.33,1.07-2.33,2.33c0,2.33-0.93,2.87-2.4,3.8c-0.67,0.4-1.47,0.87-2.13,1.6
		c-1.53-0.53-3.13-0.87-4.8-1.13c0.6-2,1.53-3.07,2.07-3.4c-0.07,0-0.07,0.07-0.07,0.07c3-1.13,1.4-5.47-2-4.27
		c-0.47,0.2-3.47,1.8-4.8,7.47c-4.13,0.27-8,1.6-11.4,3.67c-0.2-1.33,0-2.67,0.67-3.87c1-1.8,2.93-2.8,5.4-2.8
		c1.27,0,2.33-1.07,2.33-2.33C35.33,1.07,34.26,0,33,0c-4.2,0-7.67,1.93-9.53,5.2c-1.6,2.8-1.73,6.2-0.53,9.27
		c-0.87,0.8-1.67,1.73-2.4,2.67c-1.53-0.27-2.6-0.73-3.27-1.4C16.4,14.86,16,13.26,16,10.53C16,4.13,10.67,0,2.4,0
		C1.07,0,0,1.07,0,2.33s1.07,2.33,2.4,2.33c2.07,0,8.93,0.4,8.93,5.87c0,2.87,0.33,6.13,2.67,8.47c1,1,2.27,1.73,3.93,2.27
		c-0.87,1.73-1.53,3.53-2,5.4c-3.47,0.4-6.73-0.27-8.73-1.93C5.53,23.4,4.73,21.4,4.73,18.8c0-2.53,0.93-3.53,1-3.53
		c-0.07,0.07-0.07,0.07-0.07,0.07C8.33,13,5.2,9.47,2.6,11.8c-0.2,0.13-0.8,0.73-1.4,1.93C0.4,15.2,0,16.93,0,18.86
		c0,4,1.47,7.27,4.2,9.53c2.47,2,5.93,3.13,9.73,3.13c0.4,0,0.87,0,1.33-0.07c0,0.33,0,0.6,0,0.93c0,1.6,0.13,3.2,0.47,4.73
		c-1.67,0.73-2.93,2.07-4,3.2c-1.47,1.53-2.47,2.47-3.87,2.47c-1.6,0-2.4-0.73-2.8-1.4c-0.47-0.73-0.47-1.53-0.2-1.93
		c0.67-1.13,0.2-2.53-0.87-3.2c-1.13-0.6-2.53-0.2-3.2,0.87c-1.07,1.93-1,4.47,0.27,6.6c1.4,2.4,3.87,3.73,6.8,3.73
		c3.53,0,5.6-2.2,7.27-3.93c0.8-0.8,1.4-1.47,1.93-1.87c0.47,1.13,1,2.27,1.67,3.33v1.47c-1,2.2-2.8,5.87-8.13,6.6
		C2.8,54.19,0,58.66,0,62.12c0,1.27,1.07,2.33,2.33,2.33s2.33-1.07,2.33-2.33c0-1.73,2-3.8,6.53-4.4c3.2-0.47,5.93-1.73,8.07-3.87
		c0.33,1.67,0.87,3.27,1.53,4.8c-0.53,2.33-3.6,3.93-6.4,4.2c-1.27,0.13-2.27,1.27-2.13,2.53c0.13,1.2,1.13,2.13,2.33,2.13
		c0.07,0,0.13,0,0.2,0c3.2-0.27,6-1.53,7.93-3.4v13.53c0,1.27,1.07,2.33,2.33,2.33h29.6c1.27,0,2.33-1.07,2.33-2.33V62.39
		c0.47-0.8,0.93-1.6,1.33-2.4c2.13,2.6,4.67,4.13,8.6,4.47c1,0.07,1.73,0.47,2.27,1.13c0.4,0.6,0.53,1.13,0.53,1.2v-0.07
		c0.47,3,5.13,2.27,4.6-0.73c-0.33-1.93-2.2-5.8-7-6.2c-3.13-0.27-4.8-1.4-7-5.2c0.33-1.4,0.6-2.8,0.73-4.27
		c2.6,1.27,5.13,1.47,7.33,1.73c3.8,0.4,5.73,0.53,6.8,4.67c0.27,1.07,1.2,1.73,2.27,1.73c0.2,0,0.4,0,0.6-0.07
		c1.27-0.33,2-1.6,1.67-2.87C77.92,48.33,72.99,47.79,68.99,47.39z M24.33,22.06c2.13,0,3.33,0.33,3.8,0.53
		c0.27,1,1.2,1.73,2.27,1.73c1.27,0,2.33-1.07,2.33-2.33c0-2.67-2.53-3.73-3.67-4.07c-0.8-0.27-1.67-0.4-2.53-0.47
		c3-2.73,6.87-4.53,11.13-5.07c0,0.4,0,0.8,0,1.2c0,1.27,1.07,2.33,2.33,2.33c1.27,0,2.33-1.07,2.33-2.33c0-0.4,0-0.8,0-1.13
		c3.47,0.4,6.6,1.67,9.33,3.6c-0.33,0.13-0.6,0.27-0.93,0.47c-2.53,1.4-4,3.33-4,5.47c0,1.27,1.07,2.33,2.33,2.33
		c1.27,0,2.33-1.07,2.33-2.33c0-0.13,0.4-0.73,1.67-1.4c0.8-0.47,1.73-0.73,2.4-0.87c1.27,1.53,2.27,3.27,3.07,5.13
		c-0.13,0-0.2,0-0.33,0c-1.27,0-2.33,1.07-2.33,2.33c0,1.27,1.07,2.33,2.33,2.33c0.53,0,1.07,0,1.6-0.07
		c0.13,0.93,0.2,1.93,0.2,2.93s-0.07,2-0.2,2.93c-0.27-0.13-0.6-0.2-0.87-0.2c-1.27,0-2.33,1.07-2.33,2.33v6.67c0,0.07,0,0.2,0,0.27
		v3.73c0,4.2-1.27,8.53-3.67,12.07c-0.07,0.07-0.07,0.13-0.13,0.2c-2.87,4.13-7.27,7.07-12.8,7.07s-9.93-2.93-12.8-7.07
		c-0.07-0.07-0.07-0.13-0.13-0.2c-2.4-3.53-3.67-7.87-3.67-12.07V37.46c0-1.27-1.07-2.33-2.33-2.33c-0.33,0-0.6,0.07-0.87,0.2
		c-0.13-1-0.2-1.93-0.2-2.93c0-0.33,0-0.73,0-1.07l2.53,0.13c1.27,0.07,2.4-0.93,2.47-2.2c0.07-1.27-0.93-2.4-2.2-2.47l-2-0.13
		c0.47-1.6,1.2-3.2,2.07-4.6C23.26,22.06,23.8,22.06,24.33,22.06z M27.53,75.32v-7.6c3.53,2.93,7.87,4.47,12.46,4.47
		s8.93-1.53,12.46-4.47v7.6H27.53z"/>
</g>
</svg>
