<?xml version="1.0" encoding="utf-8"?>
<!-- Generator: Adobe Illustrator 27.0.1, SVG Export Plug-In . SVG Version: 6.00 Build 0)  -->
<svg version="1.1" id="Layer_1" xmlns="http://www.w3.org/2000/svg" xmlns:xlink="http://www.w3.org/1999/xlink" x="0px" y="0px"
	 viewBox="0 0 840 1109" style="enable-background:new 0 0 840 1109;" xml:space="preserve">
<style type="text/css">
	.st0{fill-rule:evenodd;clip-rule:evenodd;fill:#FFFFFC;}
	.st1{fill:none;stroke:#000000;stroke-width:7.3339;stroke-miterlimit:22.9256;}
	.st2{fill-rule:evenodd;clip-rule:evenodd;fill:#0A8F52;}
</style>
<g>
	<g>
		<image style="overflow:visible;opacity:0.7;" width="840" height="1109" xlink:href="7721B5DFC38AD950.png" >
		</image>
		<g>
			<path class="st0" d="M761.3,958l1.4-460.1L762.3,56L178.2,56l-0.1,640.2c-36.5-1.4-63.2,1.1-83.9,35
				C78,758,72.1,785.3,64.7,807.1l113.4-0.1c-1.5,64.3,1.1,106.2-0.1,143.9c-2.6,22.3-47.9,53-60.5,72.5H513
				c15.2-2.8,32.4-28.9,43-40.9c44.4-48.7,67.9-40.2,147.1-40.2c-16.9,26.4-53.7,59.5-73.4,81.2c21.5,0.3,69.1-0.4,82.9,0.1
				C720.4,1020.5,757.3,967.8,761.3,958"/>
			<path class="st1" d="M761.3,958l1.4-460.1L762.3,56L178.2,56l-0.1,640.2c-36.5-1.4-63.2,1.1-83.9,35
				C78,758,72.1,785.3,64.7,807.1l113.4-0.1c-1.5,64.3,1.1,106.2-0.1,143.9c-2.6,22.3-47.9,53-60.5,72.5H513
				c15.2-2.8,32.4-28.9,43-40.9c44.4-48.7,67.9-40.2,147.1-40.2c-16.9,26.4-53.7,59.5-73.4,81.2c21.5,0.3,69.1-0.4,82.9,0.1
				C720.4,1020.5,757.3,967.8,761.3,958"/>
		</g>
	</g>
	<path class="st2" d="M781.1,510.8c-89.1-3.5-102.5,17.5-165.1-49.6c-8.3-9.9-28.3-32.6-36.3-36.8c-5.3,6.4-55.4,116.5-55.9,124.1
		c-1.7,23.7,45.5,100,58.2,124.3c17.3,33,122.4,222.3,124.2,238.4c-21.3,1.8-51.5,1.5-73,0.4c-25.5-1.2-35.9-9.2-47-25.9L434,597.6
		c-4.3,5-3.9-6.7-7.1,26.1c-7.3,63.6,5.3,165.8-69.9,167.3c-89.5,1.9-181.7-3.5-271.1-0.1c3.2-13.9,16.8-41.1,25.2-54.3
		c13.4-21,27.1-23.1,56.9-23c23.4,0.1,144.8,2.6,157.4-1.8c7.7-15.2,14.2-151.9,22.6-186.4c11.1-45.7,57.9-110.8,61.2-149.7
		c-16.1,0.1-62.1-2-74.6,0.6c-33.4,6.9-52.4,141.6-114.1,102.6c-32.8-20.7-0.7-60.1,23.5-99.8c20.4-33.6,32.3-69.8,74.1-78.2
		c29.1-5.8,113.8-1.3,148.8-1.4c48.7-0.1,99.1-7.6,129.8,20.3c29.5,26.8,51.4,57.6,71.6,77.8c10.5,10.5,25.6,33.3,39.4,36
		c13.5,2.7,14.1,1.5,73.8,0.5C841.7,435.3,840.2,510.8,781.1,510.8"/>
	<path class="st2" d="M568.4,148c-94.4,28.3-50.7,168.1,41,139.7c32.2-10,61-46.1,48.7-88.8C648.9,166.8,614,134.3,568.4,148"/>
</g>
</svg>
