<?xml version="1.0" encoding="utf-8"?>
<!-- Generator: Adobe Illustrator 25.4.1, SVG Export Plug-In . SVG Version: 6.00 Build 0)  -->
<svg version="1.1" id="Layer_1" xmlns="http://www.w3.org/2000/svg" xmlns:xlink="http://www.w3.org/1999/xlink" x="0px" y="0px"
	 width="50px" height="30px" viewBox="0 0 50 30" enable-background="new 0 0 50 30" xml:space="preserve">
<g>
	<path d="M12.31,14.38H5.94L4.4,21.74H1L4.45,5.26h3.38l-1.33,6.36h6.38l1.34-6.36h3.38l-3.44,16.48h-3.4L12.31,14.38z"/>
	<path d="M19.17,16.4l3.23-0.17c0.05,1.03,0.22,1.72,0.53,2.08c0.49,0.59,1.41,0.88,2.74,0.88c1.11,0,1.91-0.2,2.41-0.6
		c0.49-0.4,0.74-0.88,0.74-1.44c0-0.49-0.2-0.9-0.61-1.24c-0.28-0.25-1.07-0.65-2.34-1.2c-1.28-0.55-2.21-1.02-2.8-1.39
		c-0.59-0.37-1.05-0.85-1.39-1.44c-0.34-0.59-0.51-1.29-0.51-2.08c0-1.39,0.5-2.54,1.51-3.45c1-0.91,2.46-1.37,4.36-1.37
		c1.93,0,3.43,0.45,4.49,1.36c1.06,0.91,1.64,2.11,1.75,3.62l-3.25,0.15c-0.08-0.79-0.37-1.39-0.85-1.81
		c-0.49-0.42-1.21-0.63-2.16-0.63c-0.94,0-1.61,0.17-2.01,0.49c-0.4,0.33-0.6,0.75-0.6,1.25c0,0.47,0.18,0.86,0.55,1.17
		c0.37,0.32,1.18,0.75,2.44,1.29c1.9,0.82,3.1,1.48,3.62,1.99c0.77,0.75,1.16,1.71,1.16,2.89c0,1.46-0.57,2.7-1.73,3.73
		c-1.15,1.03-2.75,1.55-4.81,1.55c-1.42,0-2.64-0.24-3.68-0.71c-1.04-0.48-1.77-1.14-2.2-1.98C19.33,18.48,19.14,17.5,19.17,16.4z"
		/>
	<path d="M35.16,16.41l2.16-0.2l-0.02,0.57c0,0.64,0.15,1.22,0.44,1.75c0.29,0.53,0.78,0.94,1.45,1.23
		c0.67,0.29,1.48,0.43,2.41,0.43c1.32,0,2.33-0.29,3.02-0.87c0.69-0.58,1.04-1.24,1.04-1.98c0-0.52-0.18-0.99-0.55-1.42
		c-0.37-0.42-1.4-0.99-3.07-1.71c-1.3-0.56-2.18-0.99-2.65-1.29c-0.74-0.49-1.29-1.02-1.64-1.59c-0.35-0.57-0.53-1.23-0.53-1.96
		c0-0.85,0.23-1.61,0.7-2.29c0.46-0.68,1.14-1.2,2.04-1.56c0.9-0.36,1.91-0.54,3.03-0.54c1.34,0,2.47,0.22,3.4,0.67
		c0.92,0.45,1.59,1.05,2.01,1.8C48.79,8.2,49,8.92,49,9.6c0,0.07,0,0.18-0.01,0.34l-2.13,0.17c0-0.47-0.04-0.83-0.12-1.09
		c-0.15-0.46-0.38-0.84-0.7-1.16c-0.31-0.31-0.75-0.57-1.3-0.76c-0.55-0.19-1.17-0.29-1.85-0.29c-1.2,0-2.13,0.27-2.8,0.81
		c-0.51,0.41-0.76,0.96-0.76,1.64c0,0.41,0.1,0.77,0.31,1.09c0.21,0.32,0.59,0.63,1.14,0.94c0.39,0.22,1.32,0.65,2.78,1.29
		c1.18,0.52,2,0.94,2.45,1.24c0.6,0.4,1.06,0.88,1.38,1.44c0.32,0.57,0.48,1.21,0.48,1.93c0,0.89-0.27,1.71-0.82,2.47
		c-0.54,0.75-1.29,1.34-2.25,1.75c-0.96,0.41-2.06,0.62-3.29,0.62c-1.87,0-3.39-0.41-4.57-1.22C35.76,19.99,35.17,18.53,35.16,16.41
		z"/>
	<rect x="1" y="22.91" fill-rule="evenodd" clip-rule="evenodd" fill="#CE0E2D" width="16.61" height="2.11"/>
	<rect x="35.16" y="22.91" fill-rule="evenodd" clip-rule="evenodd" fill="#FFED00" width="13.84" height="2.11"/>
	<rect x="19.16" y="22.91" fill-rule="evenodd" clip-rule="evenodd" fill="#009FE3" width="14.11" height="2.11"/>
</g>
</svg>
