<?xml version="1.0" encoding="utf-8"?>
<!-- Generator: Adobe Illustrator 25.4.1, SVG Export Plug-In . SVG Version: 6.00 Build 0)  -->
<svg version="1.1" id="Layer_1" xmlns="http://www.w3.org/2000/svg" xmlns:xlink="http://www.w3.org/1999/xlink" x="0px" y="0px"
	 width="48.01px" height="4.8px" viewBox="0 0 48.01 4.8" enable-background="new 0 0 48.01 4.8" xml:space="preserve">
<path d="M2.51,2.09H1.1L0.76,3.73H0l0.77-3.66h0.75L1.23,1.48h1.42l0.3-1.41H3.7L2.94,3.73H2.17L2.51,2.09z"/>
<path d="M4.23,1.07h0.72L4.4,3.72H3.68L4.23,1.07z M4.44,0.06h0.72L5.03,0.71H4.31L4.44,0.06z"/>
<path d="M5.06,3.86l0.76,0.11c0,0.08,0.01,0.13,0.04,0.17c0.02,0.04,0.07,0.07,0.12,0.1c0.06,0.03,0.13,0.04,0.23,0.04
	c0.15,0,0.27-0.03,0.36-0.09c0.07-0.05,0.12-0.12,0.17-0.22c0.03-0.06,0.06-0.21,0.1-0.42l0.03-0.13C6.62,3.63,6.37,3.73,6.1,3.73
	c-0.26,0-0.47-0.09-0.64-0.27s-0.25-0.45-0.25-0.8c0-0.31,0.06-0.6,0.17-0.86c0.11-0.26,0.27-0.46,0.48-0.59
	c0.2-0.13,0.41-0.2,0.63-0.2c0.18,0,0.34,0.05,0.48,0.14c0.15,0.09,0.26,0.22,0.34,0.39l0.1-0.47h0.67L7.62,3.28
	C7.55,3.63,7.48,3.89,7.43,4.04C7.38,4.19,7.32,4.31,7.25,4.4S7.1,4.57,7,4.63c-0.1,0.06-0.22,0.1-0.36,0.13
	C6.5,4.79,6.35,4.8,6.19,4.8c-0.37,0-0.66-0.06-0.85-0.19C5.15,4.48,5.05,4.27,5.05,3.97C5.05,3.94,5.06,3.9,5.06,3.86z M5.9,2.58
	c0,0.2,0.05,0.36,0.14,0.46C6.13,3.15,6.24,3.2,6.38,3.2c0.12,0,0.25-0.05,0.36-0.14c0.12-0.09,0.21-0.23,0.27-0.4
	C7.07,2.49,7.1,2.32,7.1,2.15c0-0.19-0.05-0.34-0.15-0.45S6.73,1.53,6.6,1.53S6.35,1.58,6.25,1.68c-0.11,0.1-0.2,0.26-0.27,0.47
	C5.93,2.31,5.9,2.45,5.9,2.58z"/>
<path d="M8.95,3.72H8.23L9,0.06h0.72l-0.27,1.3C9.61,1.23,9.76,1.14,9.9,1.09c0.14-0.06,0.29-0.08,0.45-0.08
	c0.21,0,0.38,0.06,0.51,0.18c0.12,0.12,0.19,0.28,0.19,0.48c0,0.11-0.02,0.27-0.07,0.49l-0.32,1.55H9.94l0.33-1.58
	c0.04-0.17,0.05-0.28,0.05-0.33c0-0.09-0.03-0.16-0.08-0.21s-0.13-0.08-0.22-0.08c-0.12,0-0.23,0.04-0.34,0.12
	c-0.14,0.11-0.25,0.24-0.33,0.4c-0.04,0.09-0.1,0.3-0.16,0.62L8.95,3.72z"/>
<path d="M14.12,3.72h-0.67l-0.13-1.69l-0.81,1.69h-0.66l-0.33-2.65h0.64l0.19,1.78l0.83-1.78h0.65l0.09,1.78l0.82-1.78h0.72
	L14.12,3.72z"/>
<path d="M16.34,1.82l-0.7-0.06c0.08-0.24,0.22-0.42,0.42-0.55s0.46-0.2,0.79-0.2c0.34,0,0.59,0.07,0.76,0.21
	c0.16,0.14,0.24,0.31,0.24,0.5c0,0.08-0.01,0.16-0.02,0.25s-0.06,0.33-0.15,0.71c-0.07,0.32-0.1,0.54-0.1,0.66
	c0,0.11,0.02,0.24,0.06,0.38h-0.7c-0.03-0.1-0.05-0.2-0.05-0.3c-0.1,0.12-0.23,0.21-0.36,0.27c-0.14,0.06-0.27,0.09-0.41,0.09
	c-0.22,0-0.4-0.07-0.54-0.22C15.44,3.42,15.37,3.23,15.37,3c0-0.25,0.08-0.46,0.24-0.61s0.44-0.24,0.84-0.27
	c0.34-0.03,0.57-0.06,0.68-0.1c0.03-0.1,0.04-0.18,0.04-0.24c0-0.08-0.03-0.14-0.09-0.19c-0.06-0.05-0.15-0.08-0.27-0.08
	c-0.13,0-0.23,0.03-0.3,0.08C16.41,1.65,16.36,1.73,16.34,1.82z M17.02,2.49c-0.04,0.01-0.1,0.02-0.17,0.03
	c-0.36,0.04-0.59,0.11-0.7,0.19c-0.08,0.06-0.12,0.14-0.12,0.24c0,0.08,0.03,0.15,0.09,0.21s0.14,0.09,0.24,0.09
	c0.11,0,0.21-0.03,0.31-0.08s0.17-0.12,0.21-0.2c0.05-0.08,0.09-0.21,0.13-0.39L17.02,2.49z"/>
<path d="M18.39,1.07h0.71l0.18,1.32c0.05,0.34,0.07,0.58,0.08,0.71c0.09-0.27,0.22-0.56,0.38-0.86l0.63-1.18h0.76l-1.64,2.91
	c-0.13,0.24-0.24,0.41-0.32,0.51S19,4.65,18.89,4.71s-0.24,0.08-0.39,0.08s-0.32-0.03-0.51-0.08l0.06-0.53
	c0.09,0.02,0.17,0.04,0.25,0.04c0.22,0,0.4-0.17,0.54-0.5L18.39,1.07z"/>
<path d="M21.13,2.54l0.72-0.04c0.01,0.23,0.05,0.38,0.12,0.46c0.11,0.13,0.31,0.19,0.61,0.19c0.25,0,0.42-0.04,0.53-0.13
	s0.16-0.19,0.16-0.32c0-0.11-0.05-0.2-0.14-0.27c-0.06-0.05-0.24-0.14-0.52-0.27c-0.28-0.12-0.49-0.23-0.62-0.31
	c-0.13-0.08-0.23-0.19-0.31-0.32c-0.07-0.13-0.11-0.29-0.11-0.46c0-0.31,0.11-0.56,0.33-0.77C22.12,0.1,22.45,0,22.87,0
	c0.43,0,0.76,0.1,1,0.3s0.36,0.47,0.39,0.8l-0.72,0.03c-0.02-0.18-0.08-0.31-0.19-0.4c-0.11-0.09-0.27-0.14-0.48-0.14
	s-0.36,0.04-0.45,0.11s-0.13,0.17-0.13,0.28c0,0.1,0.04,0.19,0.12,0.26c0.08,0.07,0.26,0.17,0.54,0.29c0.42,0.18,0.69,0.33,0.8,0.44
	c0.17,0.17,0.26,0.38,0.26,0.64c0,0.32-0.13,0.6-0.38,0.83c-0.26,0.23-0.61,0.34-1.07,0.34c-0.31,0-0.59-0.05-0.82-0.16
	s-0.39-0.25-0.49-0.44C21.17,3,21.13,2.78,21.13,2.54z"/>
<path d="M25.44,1.82l-0.7-0.06c0.08-0.24,0.22-0.42,0.42-0.55s0.46-0.2,0.79-0.2c0.34,0,0.59,0.07,0.76,0.21
	c0.16,0.14,0.24,0.31,0.24,0.5c0,0.08-0.01,0.16-0.02,0.25s-0.06,0.33-0.15,0.71c-0.07,0.32-0.1,0.54-0.1,0.66
	c0,0.11,0.02,0.24,0.06,0.38h-0.7c-0.03-0.1-0.05-0.2-0.05-0.3c-0.1,0.12-0.23,0.21-0.36,0.27c-0.14,0.06-0.27,0.09-0.41,0.09
	c-0.22,0-0.4-0.07-0.54-0.22C24.54,3.42,24.47,3.23,24.47,3c0-0.25,0.08-0.46,0.24-0.61s0.44-0.24,0.84-0.27
	c0.34-0.03,0.57-0.06,0.68-0.1c0.03-0.1,0.04-0.18,0.04-0.24c0-0.08-0.03-0.14-0.09-0.19c-0.06-0.05-0.15-0.08-0.27-0.08
	c-0.13,0-0.23,0.03-0.3,0.08C25.51,1.65,25.46,1.73,25.44,1.82z M26.12,2.49c-0.04,0.01-0.1,0.02-0.17,0.03
	c-0.36,0.04-0.59,0.11-0.7,0.19c-0.08,0.06-0.12,0.14-0.12,0.24c0,0.08,0.03,0.15,0.09,0.21s0.14,0.09,0.24,0.09
	c0.11,0,0.21-0.03,0.31-0.08s0.17-0.12,0.22-0.2s0.09-0.21,0.13-0.39L26.12,2.49z"/>
<path d="M29.12,1.07l-0.11,0.52H28.5l-0.44,2.13h-0.72l0.44-2.13h-0.4l0.11-0.52h0.4l0.06-0.27c0.05-0.22,0.09-0.37,0.13-0.45
	c0.06-0.11,0.14-0.19,0.25-0.25s0.26-0.09,0.44-0.09c0.22,0,0.45,0.04,0.69,0.12l-0.14,0.51c-0.17-0.06-0.31-0.09-0.42-0.09
	c-0.08,0-0.14,0.03-0.18,0.08c-0.03,0.03-0.05,0.12-0.08,0.26L28.6,1.08L29.12,1.07L29.12,1.07z"/>
<path d="M31.56,2.62h-1.8c0,0.03,0,0.05,0,0.06c0,0.18,0.05,0.32,0.15,0.43c0.1,0.11,0.22,0.16,0.37,0.16
	c0.24,0,0.42-0.12,0.56-0.37l0.64,0.11c-0.13,0.26-0.29,0.45-0.5,0.58s-0.44,0.19-0.7,0.19c-0.36,0-0.65-0.11-0.87-0.34
	c-0.22-0.23-0.33-0.52-0.33-0.9c0-0.36,0.1-0.69,0.3-0.97C29.65,1.19,30.05,1,30.56,1c0.32,0,0.58,0.1,0.77,0.3s0.29,0.48,0.29,0.84
	C31.61,2.33,31.59,2.48,31.56,2.62z M30.95,2.18c0-0.03,0-0.06,0-0.07c0-0.2-0.04-0.34-0.13-0.44c-0.09-0.1-0.21-0.15-0.35-0.15
	c-0.15,0-0.28,0.06-0.4,0.17c-0.12,0.11-0.2,0.28-0.24,0.49C29.83,2.18,30.95,2.18,30.95,2.18z"/>
<path d="M32,1.6l0.11-0.53h0.35l0.09-0.42l0.82-0.49l-0.19,0.92h0.44L33.5,1.6h-0.44l-0.23,1.11c-0.04,0.2-0.06,0.32-0.06,0.34
	c0,0.05,0.02,0.1,0.05,0.13s0.1,0.05,0.19,0.05c0.03,0,0.11-0.01,0.24-0.02l-0.11,0.53c-0.12,0.03-0.25,0.04-0.38,0.04
	c-0.25,0-0.44-0.05-0.55-0.15s-0.17-0.23-0.17-0.41c0-0.08,0.03-0.27,0.09-0.56l0.22-1.07L32,1.6L32,1.6z"/>
<path d="M33.74,1.07h0.71l0.18,1.32c0.05,0.34,0.07,0.58,0.07,0.71c0.09-0.27,0.22-0.56,0.38-0.86l0.63-1.18h0.76l-1.64,2.91
	c-0.13,0.24-0.24,0.41-0.32,0.51c-0.08,0.1-0.17,0.17-0.28,0.23s-0.24,0.08-0.39,0.08c-0.15,0-0.32-0.03-0.51-0.08l0.06-0.53
	c0.09,0.02,0.17,0.04,0.25,0.04c0.22,0,0.4-0.17,0.54-0.5L33.74,1.07z"/>
<path d="M36.52,2.54L37,2.49v0.13c0,0.14,0.03,0.27,0.1,0.39c0.06,0.12,0.17,0.21,0.32,0.27s0.33,0.1,0.53,0.1
	c0.29,0,0.52-0.06,0.67-0.19c0.15-0.13,0.23-0.27,0.23-0.44c0-0.12-0.04-0.22-0.12-0.31c-0.08-0.09-0.31-0.22-0.68-0.38
	c-0.29-0.12-0.48-0.22-0.59-0.29c-0.16-0.11-0.29-0.23-0.36-0.35c-0.08-0.13-0.12-0.27-0.12-0.44c0-0.19,0.05-0.36,0.15-0.51
	c0.1-0.15,0.25-0.27,0.45-0.35S38,0,38.25,0c0.3,0,0.55,0.05,0.75,0.15c0.2,0.1,0.35,0.23,0.45,0.4c0.09,0.17,0.14,0.33,0.14,0.48
	c0,0.01,0,0.04,0,0.07l-0.47,0.04c0-0.1-0.01-0.18-0.03-0.24C39.06,0.8,39,0.71,38.93,0.64c-0.07-0.07-0.17-0.13-0.29-0.17
	c-0.12-0.04-0.26-0.06-0.41-0.06c-0.27,0-0.47,0.06-0.62,0.18c-0.11,0.09-0.17,0.21-0.17,0.36c0,0.09,0.02,0.17,0.07,0.24
	s0.13,0.14,0.25,0.21c0.09,0.05,0.29,0.14,0.62,0.29c0.26,0.12,0.44,0.21,0.54,0.27c0.13,0.09,0.24,0.2,0.31,0.32
	c0.07,0.13,0.11,0.27,0.11,0.43c0,0.2-0.06,0.38-0.18,0.55c-0.12,0.17-0.29,0.3-0.5,0.39s-0.46,0.14-0.73,0.14
	c-0.41,0-0.75-0.09-1.02-0.27C36.65,3.33,36.52,3.01,36.52,2.54z"/>
<path d="M39.74,3.72l0.76-3.66h0.45l-0.29,1.41c0.17-0.16,0.32-0.28,0.47-0.35c0.14-0.07,0.29-0.11,0.45-0.11
	c0.22,0,0.39,0.06,0.51,0.17c0.12,0.12,0.18,0.27,0.18,0.46c0,0.09-0.03,0.26-0.08,0.51l-0.33,1.57h-0.45l0.34-1.61
	c0.05-0.23,0.07-0.38,0.07-0.44c0-0.09-0.03-0.16-0.09-0.21s-0.15-0.08-0.26-0.08c-0.16,0-0.32,0.04-0.47,0.13s-0.26,0.2-0.35,0.35
	c-0.08,0.15-0.16,0.39-0.23,0.72l-0.24,1.14C40.18,3.72,39.74,3.72,39.74,3.72z"/>
<path d="M42.67,2.72c0-0.52,0.15-0.95,0.46-1.29c0.25-0.28,0.58-0.42,0.99-0.42c0.32,0,0.58,0.1,0.77,0.3
	c0.2,0.2,0.29,0.47,0.29,0.81c0,0.3-0.06,0.59-0.18,0.85s-0.3,0.46-0.53,0.6S44,3.78,43.75,3.78c-0.21,0-0.39-0.04-0.56-0.13
	c-0.17-0.09-0.3-0.21-0.39-0.37C42.71,3.12,42.67,2.93,42.67,2.72z M43.12,2.67c0,0.25,0.06,0.44,0.18,0.57s0.27,0.19,0.46,0.19
	c0.1,0,0.19-0.02,0.29-0.06c0.1-0.04,0.18-0.1,0.26-0.18c0.08-0.08,0.15-0.17,0.21-0.27c0.06-0.1,0.1-0.21,0.14-0.33
	c0.05-0.16,0.08-0.32,0.08-0.47c0-0.24-0.06-0.43-0.18-0.56s-0.27-0.2-0.46-0.2c-0.14,0-0.27,0.03-0.39,0.1
	c-0.12,0.07-0.22,0.17-0.32,0.3c-0.09,0.13-0.16,0.28-0.21,0.45C43.14,2.38,43.12,2.54,43.12,2.67z"/>
<path d="M45.21,4.74l0.77-3.67h0.42l-0.08,0.37c0.15-0.16,0.29-0.27,0.42-0.34c0.12-0.06,0.25-0.09,0.39-0.09
	c0.25,0,0.46,0.09,0.63,0.28c0.17,0.18,0.25,0.45,0.25,0.79c0,0.28-0.05,0.53-0.14,0.76c-0.09,0.23-0.2,0.41-0.34,0.55
	c-0.13,0.14-0.27,0.24-0.4,0.3c-0.14,0.07-0.28,0.1-0.42,0.1c-0.32,0-0.56-0.16-0.74-0.48l-0.3,1.44h-0.46V4.74z M46.1,2.64
	c0,0.2,0.01,0.34,0.04,0.41c0.04,0.11,0.11,0.2,0.2,0.26c0.09,0.07,0.2,0.1,0.33,0.1c0.26,0,0.47-0.15,0.63-0.44s0.24-0.59,0.24-0.9
	c0-0.22-0.05-0.4-0.16-0.52s-0.24-0.18-0.4-0.18c-0.11,0-0.22,0.03-0.32,0.09s-0.19,0.15-0.27,0.27C46.31,1.85,46.24,2,46.18,2.17
	C46.13,2.36,46.1,2.51,46.1,2.64z"/>
<rect y="3.98" fill-rule="evenodd" clip-rule="evenodd" fill="#CE0E2D" width="4.8" height="0.47"/>
<rect x="7.88" y="3.98" fill-rule="evenodd" clip-rule="evenodd" fill="#CE0E2D" width="9.79" height="0.47"/>
<rect x="21.13" y="3.98" fill-rule="evenodd" clip-rule="evenodd" fill="#009FE3" width="11.87" height="0.47"/>
<rect x="35.15" y="3.98" fill-rule="evenodd" clip-rule="evenodd" fill="#009FE3" width="0.7" height="0.47"/>
<rect x="36.52" y="3.98" fill-rule="evenodd" clip-rule="evenodd" fill="#FFED00" width="8.53" height="0.47"/>
<rect x="46.01" y="3.98" fill-rule="evenodd" clip-rule="evenodd" fill="#FFED00" width="1.7" height="0.47"/>
<rect x="19.81" y="3.98" fill-rule="evenodd" clip-rule="evenodd" fill="#CE0E2D" width="0.7" height="0.47"/>
</svg>
