<?xml version="1.0" encoding="utf-8"?>
<!-- Generator: Adobe Illustrator 27.0.1, SVG Export Plug-In . SVG Version: 6.00 Build 0)  -->
<svg version="1.1" id="Layer_1" xmlns="http://www.w3.org/2000/svg" xmlns:xlink="http://www.w3.org/1999/xlink" x="0px" y="0px"
	 width="200px" height="200px" viewBox="0 0 200 200" enable-background="new 0 0 200 200" xml:space="preserve">
<g>
	<path fill="#08A64E" d="M104.4,169.7c-0.3-7.9-0.6-17.5-0.6-27h-0.3c-2,8.4-4.8,17.8-7.3,25.5l-8,25.7H76.6l-7-25.5
		c-2.1-7.7-4.4-17.1-5.9-25.7h-0.2c-0.4,8.9-0.7,19-1.2,27.2l-1.2,25H47.3l4.2-65.7h19.8l6.4,21.9c2,7.6,4.1,15.8,5.6,23.5h0.3
		c1.9-7.6,4.1-16.3,6.2-23.6l7-21.8h19.4l3.6,65.7h-14.5L104.4,169.7z"/>
	<g>
		<g>
			<path fill-rule="evenodd" clip-rule="evenodd" fill="#EDEDA5" stroke="#000000" stroke-width="0.5" stroke-miterlimit="10" d="
				M130.8,41.3l25.7-24.2c6.1-4.7,11.1,2.2,5.2,6.6l-28.8,20.8C128.2,47.4,127.3,44.8,130.8,41.3"/>
			<path fill-rule="evenodd" clip-rule="evenodd" fill="#EDEDA5" stroke="#000000" stroke-width="0.5" stroke-miterlimit="10" d="
				M142.3,60.6l39.2-0.7c7.3,0.8,7.3,9.8,0.3,8.9l-39.7-4.2C136.9,63.4,137.6,60.8,142.3,60.6"/>
			<path fill-rule="evenodd" clip-rule="evenodd" fill="#EDEDA5" stroke="#000000" stroke-width="0.5" stroke-miterlimit="10" d="
				M139.8,73.7l18,5.9c6.6,3.6,3.9,12.1-2.4,8.4l-17-10.6C133.8,74.1,135.3,72,139.8,73.7"/>
			<path fill-rule="evenodd" clip-rule="evenodd" fill="#EDEDA5" stroke="#000000" stroke-width="0.5" stroke-miterlimit="10" d="
				M122.3,88.7l6.9,15.3c2.2,8-5,11.5-7,3.8L119,90C118,84,120.3,83.8,122.3,88.7"/>
			<path fill-rule="evenodd" clip-rule="evenodd" fill="#EDEDA5" stroke="#000000" stroke-width="0.5" stroke-miterlimit="10" d="
				M110.7,86.8l-1.3,32.6c-2.3,8-9.9,6-7.6-1.6l5.5-32.1C109.5,80.1,111.6,81.5,110.7,86.8"/>
			<path fill-rule="evenodd" clip-rule="evenodd" fill="#EDEDA5" stroke="#000000" stroke-width="0.5" stroke-miterlimit="10" d="
				M92.9,79.1L80.5,99.6c-6.1,4.7-11.1-2.2-5.2-6.6l15.5-17.1C95.6,73.1,96.5,75.6,92.9,79.1"/>
			<path fill-rule="evenodd" clip-rule="evenodd" fill="#EDEDA5" stroke="#000000" stroke-width="0.5" stroke-miterlimit="10" d="
				M83.2,66.7L64.9,75c-5.9,1.2-8.5-5.9-2.1-8.5l19.8-3.7C87.9,62.6,87.8,65.3,83.2,66.7"/>
			<path fill-rule="evenodd" clip-rule="evenodd" fill="#EDEDA5" stroke="#000000" stroke-width="0.5" stroke-miterlimit="10" d="
				M90.6,46.6L75,38.8c-5.4-5.6-0.7-12.8,4.4-7.3l13.5,12.1C96.4,48.2,94.5,49.7,90.6,46.6"/>
			<path fill-rule="evenodd" clip-rule="evenodd" fill="#EDEDA5" stroke="#000000" stroke-width="0.5" stroke-miterlimit="10" d="
				M99,37L86.1,13.3c-2.6-7.8,4.4-11.8,6.8-4.2l9.3,26.3C103.5,41.3,101.2,41.7,99,37"/>
			<path fill-rule="evenodd" clip-rule="evenodd" fill="#EDEDA5" stroke="#000000" stroke-width="0.5" stroke-miterlimit="10" d="
				M124.1,34.6l4.8-16.2c3.3-7.5,10.6-4.2,7.3,2.9l-9,15C124.4,41.4,122.5,39.7,124.1,34.6"/>
			
				<polygon fill-rule="evenodd" clip-rule="evenodd" fill="#EDEDA5" stroke="#000000" stroke-width="0.5" stroke-miterlimit="10" points="
				123.2,49.4 150.7,47.7 128.4,64.9 137.5,90 113.4,76.5 90.7,94.2 98.4,67.7 73.2,53.3 102.8,51.4 112,18.1 			"/>
		</g>
		<path fill-rule="evenodd" clip-rule="evenodd" fill="#08A64E" d="M90.1,69.8c1.6,0.8,1.6,2.7,0,4.1C62,87.5,25.8,145.4,25,194.7
			L7.9,195C8.1,139.5,42.8,81.8,90.1,69.8"/>
	</g>
	<path fill-rule="evenodd" clip-rule="evenodd" fill="#08A64E" d="M131.4,161.9c0-15.9,12.9-28.9,28.7-28.9
		c15.8,0,28.7,13,28.7,28.9c0,15.9-12.9,29-28.7,29C144.3,190.8,131.4,177.8,131.4,161.9z M143.5,161.9c0-9.2,7.5-16.8,16.7-16.8
		c9.2,0,16.7,7.5,16.7,16.8c0,9.2-7.5,16.8-16.7,16.8C151,178.7,143.5,171.2,143.5,161.9z"/>
	<g>
		<path fill="none" stroke="#08A64E" stroke-width="1.1319" stroke-miterlimit="10" d="M152.6,189.6c-5.4,13.7-33.7-15.8-20.2-20.9"
			/>
		<path fill="none" stroke="#08A64E" stroke-width="1.1319" stroke-miterlimit="10" d="M187.3,169.8c13.6,5.5-14.9,33.8-19.9,20.1"
			/>
		<path fill="none" stroke="#08A64E" stroke-width="1.1319" stroke-miterlimit="10" d="M167.8,134.5c5.4-13.7,33.6,15.2,20.1,20.2"
			/>
		<path fill="none" stroke="#08A64E" stroke-width="1.1319" stroke-miterlimit="10" d="M132.7,153.7c-13.6-5.5,16.3-33.1,21.3-19.4"
			/>
	</g>
</g>
</svg>
