<?xml version="1.0" encoding="utf-8"?>
<!-- Generator: Adobe Illustrator 25.4.1, SVG Export Plug-In . SVG Version: 6.00 Build 0)  -->
<svg version="1.1" id="Layer_1" xmlns="http://www.w3.org/2000/svg" xmlns:xlink="http://www.w3.org/1999/xlink" x="0px" y="0px"
	 width="50px" height="30px" viewBox="0 0 50 30" enable-background="new 0 0 50 30" xml:space="preserve">
<g>
	<path fill="#FFFFFF" d="M31.54,17.34c-2.63-4.52-5.62-9.77-6.51-11.35c-1.1,1.94-5.36,9.35-5.36,9.35s-0.37,0.63-0.89,1.52
		c-1.31,2.26-3.68,6.41-4.47,7.77c2.21,0,19.28,0,21.43,0C35.27,23.8,33.54,20.75,31.54,17.34z"/>
	<path fill="#E30D13" d="M37.16,29c1.21,0,2.36-0.63,2.94-1.73c0.63-1.16,0.63-2.47,0-3.52l-3.52-6.15L27.97,2.73
		C27.34,1.68,26.23,1,25.03,1c-1.21,0-2.36,0.63-2.94,1.73c0,0-6.25,10.82-6.3,10.98l-1.89,3.15L9.9,23.75
		c-0.32,0.53-0.47,1.1-0.47,1.73c0,0.58,0.16,1.21,0.47,1.73c0.63,1.05,1.73,1.73,2.94,1.73h5.04 M16.46,13.5L16.46,13.5
		C16.46,13.45,16.46,13.45,16.46,13.5C16.46,13.45,16.46,13.45,16.46,13.5L16.46,13.5L16.46,13.5L16.46,13.5z M14.31,24.64
		c0.79-1.37,3.15-5.46,4.47-7.77c0.53-0.95,0.89-1.52,0.89-1.52s4.26-7.41,5.36-9.3c0.89,1.58,3.94,6.78,6.51,11.35
		c1.94,3.41,3.73,6.46,4.2,7.25C33.54,24.64,16.46,24.64,14.31,24.64z"/>
</g>
</svg>
