<?xml version="1.0" encoding="utf-8"?>
<!-- Generator: Adobe Illustrator 27.0.1, SVG Export Plug-In . SVG Version: 6.00 Build 0)  -->
<svg version="1.1" id="Layer_1" xmlns="http://www.w3.org/2000/svg" xmlns:xlink="http://www.w3.org/1999/xlink" x="0px" y="0px"
	 viewBox="0 0 300 300" style="enable-background:new 0 0 300 300;" xml:space="preserve">
<style type="text/css">
	.st0{fill:#4DB74E;}
	.st1{fill:#008B5B;}
	.st2{fill:#059550;}
	.st3{fill:#039848;}
	.st4{fill:#0C9B49;}
	.st5{fill:#0C8643;}
	.st6{fill:#32C5EE;}
	.st7{fill:none;}
	
		.st8{clip-path:url(#SVGID_00000142178178818329136600000008516410809435527846_);fill:url(#SVGID_00000183968329750289719910000014318210399557463432_);}
	.st9{clip-path:url(#SVGID_00000033355386838897707290000018099915979147412357_);fill:#676666;}
	.st10{clip-path:url(#SVGID_00000033355386838897707290000018099915979147412357_);fill:#201510;}
	
		.st11{clip-path:url(#SVGID_00000091696281549190990270000018345719043738935228_);fill:url(#SVGID_00000130616735075807904190000016279068037032562571_);}
	
		.st12{clip-path:url(#SVGID_00000065757352843734435550000003104837892498923959_);fill:url(#SVGID_00000140721948185632147610000003391753114254898572_);}
	
		.st13{clip-path:url(#SVGID_00000085224977664061588600000018094551290889254586_);fill:url(#SVGID_00000031192730772663630040000010868643237142816141_);}
	.st14{clip-path:url(#SVGID_00000086663965274833259890000017600834014277101722_);fill:#98CA3C;}
	
		.st15{clip-path:url(#SVGID_00000085960930118594665990000003171391211654477205_);fill:url(#SVGID_00000037666574920791257160000006833568135469741457_);}
	
		.st16{clip-path:url(#SVGID_00000051385695348380201440000014576806998130547591_);fill:url(#SVGID_00000074437079280271138460000010136579772162815637_);}
	
		.st17{clip-path:url(#SVGID_00000022554710801435390610000000401396228837458819_);fill:url(#SVGID_00000150816134925573644710000005399396800001608064_);}
	
		.st18{clip-path:url(#SVGID_00000089551718803615313250000002358170408026175382_);fill:url(#SVGID_00000041283970679554269070000012506814948938846360_);}
	
		.st19{clip-path:url(#SVGID_00000075130145666658253960000017723689929140081598_);fill:url(#SVGID_00000008122699975630714170000011675593246217300127_);}
	
		.st20{clip-path:url(#SVGID_00000146458349891250148430000016474509979268260488_);fill:url(#SVGID_00000044171920673660717170000006702161767272848045_);}
</style>
<path class="st0" d="M77.3,82.3c-2.7-1.2-5.1-2.2-7-2.9c-0.4-3-0.7-6-0.9-9.1c-0.1-2.5-0.1-5,0.2-7.4c1.6,0.3,3.9,0.7,6.8,1.2
	c-0.3,3.4-0.3,7.1,0,10.9C76.7,77.5,76.9,79.9,77.3,82.3 M104.1,98.2c-6.9-5-13.3-9-18.9-11.9c-1.1-7-1.6-13.9-1.2-20.5
	c5.2,1.1,11.3,2.6,18.1,4.5C101.6,79.1,102.4,88.5,104.1,98.2 M174.7,101.9c-0.1,0.8-0.2,1.5-0.2,2.3c-9.4,4.9-18.7,11.5-27.1,20.4
	c-2.7,2.9-5.2,5.8-7.5,8.6c-2.5-3.2-5.3-6.5-8.1-9.7c-1.3-1.5-2.6-2.9-3.9-4.3c-2.2-14.5-3.5-28.7-3.8-42.1
	C140.8,83.1,158.8,91.2,174.7,101.9L174.7,101.9z"/>
<path class="st1" d="M79.3,50.1c-1.4,4.3-2.4,8.9-2.9,14c-2.9-0.6-5.2-1-6.8-1.2c0.2-1.5,0.5-3,0.8-4.5
	C72.5,56.2,75.4,53.3,79.3,50.1"/>
<path class="st2" d="M112,31.7c-4.9,9.1-8.9,21.3-9.9,37.6c0,0.3,0,0.6,0,1c-6.7-1.9-12.9-3.3-18.1-4.5c0-0.2,0-0.4,0-0.6
	c0.6-8.5,3.2-16.4,7-23.3C96.9,38.1,103.9,34.6,112,31.7"/>
<path class="st3" d="M174.7,101.9c-15.9-10.7-33.9-18.8-50.6-24.7c-0.3-15.9,0.9-30.6,4.2-42.7c0.1-0.3,0.2-0.7,0.3-1
	c13.3,7.8,30.5,16.6,46.9,20.4C176.9,68.3,176.5,84.8,174.7,101.9L174.7,101.9z"/>
<path class="st4" d="M231,70.3c-0.4,6.7-1.4,13.4-2.9,20c-1.9,0.1-4.1,0.2-6.5,0.4c1.1-5.1,1.8-10.4,2.3-15.7
	c1.4-18-4.4-31.7-11.1-41.3c2,0.6,3.8,1.1,5.6,1.6C225.9,45,231.8,57.3,231,70.3 M214.2,91.7c-5.3,0.8-11.2,1.9-17.5,3.7
	c1.4-9,2.1-17.9,1.6-26.1c-1.1-18.8-6.2-32.1-12.2-41.5c5.6,0.9,11,2,15.9,3.2c7.8,9.3,13.4,20.8,14.4,34.1
	C216.9,73.6,216,82.6,214.2,91.7"/>
<path class="st5" d="M175.5,53.9c-16.4-3.8-33.7-12.6-46.9-20.4c0.7-2.4,1.5-4.6,2.3-6.6c2.4-0.4,4.9-0.8,7.5-1
	c10.4-1.1,20.7-1,30.5-0.1c1.2,2.6,2.2,5.5,3.1,8.8C173.7,40.4,174.8,46.9,175.5,53.9"/>
<path class="st6" d="M104.7,17c-0.5,0.3-18.2,11.2-25.4,33.2c-3.9,3.2-6.8,6.1-8.9,8.3C75.2,37.7,94.3,20.7,104.7,17 M115.8,25.5
	c-1.3,1.9-2.6,3.9-3.8,6.2c-8.1,2.9-15.1,6.4-21,10c4.5-8.3,10.8-15.3,18-20.9C110.7,22.1,113,23.7,115.8,25.5z"/>
<rect x="0" y="0.3" class="st7" width="300" height="300"/>
<g>
	<defs>
		<path id="SVGID_1_" d="M212.8,33.8c2,0.6,3.8,1.1,5.6,1.6c-7.5-9.5-16.6-16.3-22.7-18.5C195.6,17,204.8,22.5,212.8,33.8 M109,20.8
			c1.7,1.2,4,2.8,6.8,4.7c9.8-14,21.3-18,21.8-18.2C128.2,9.2,118,13.9,109,20.8 M186,27.8c5.6,0.9,11,2,15.9,3.2
			c-10.7-12.6-25.7-21-39.2-23.7C163.3,7.5,176,12,186,27.8 M150,7.3c0,0-11.8,2.5-19.1,19.6c2.4-0.4,4.9-0.8,7.5-1
			c10.4-1.1,20.7-1,30.5-0.1c-7.3-16.1-18.6-18.4-18.6-18.4H150z"/>
	</defs>
	<clipPath id="SVGID_00000029014741012635938880000005680212003752612276_">
		<use xlink:href="#SVGID_1_"  style="overflow:visible;"/>
	</clipPath>
	
		<linearGradient id="SVGID_00000027567721198993235580000013872755354470933649_" gradientUnits="userSpaceOnUse" x1="-223.7594" y1="525.8012" x2="-223.3594" y2="525.8012" gradientTransform="matrix(245.0597 7.4265 -7.4265 245.0597 58853.1602 -127171.0781)">
		<stop  offset="0" style="stop-color:#4180C2"/>
		<stop  offset="1" style="stop-color:#62C4AF"/>
	</linearGradient>
	
		<polygon style="clip-path:url(#SVGID_00000029014741012635938880000005680212003752612276_);fill:url(#SVGID_00000027567721198993235580000013872755354470933649_);" points="
		108.2,35.4 218.3,38.8 219.2,7.3 109.1,4 	"/>
</g>
<g>
	<defs>
		<rect id="SVGID_00000070088498558746371300000018330682425000531343_" x="0" y="0.3" width="300" height="300"/>
	</defs>
	<clipPath id="SVGID_00000163072149804427684530000000579573315401808013_">
		<use xlink:href="#SVGID_00000070088498558746371300000018330682425000531343_"  style="overflow:visible;"/>
	</clipPath>
	<polygon style="clip-path:url(#SVGID_00000163072149804427684530000000579573315401808013_);fill:#676666;" points="150.2,229.7 
		162.3,229.7 166.8,210.1 133.5,210.1 138,229.7 	"/>
	<path style="clip-path:url(#SVGID_00000163072149804427684530000000579573315401808013_);fill:#201510;" d="M241.4,292.2l7.7,0.3
		l6.3-28.6l6.5,28.6h7.8l7-36.4h-6l-4.6,30h-1.1l-6.7-30h-5.5l-6.6,30h-0.9l-4.9-30H234L241.4,292.2z M226.2,277.8l-4.6-16.9h-1.3
		l-4.5,16.9H226.2z M227.5,282.4h-12.9l-2.7,10.1h-6.4l11.9-36.4h7.4l12,36.4h-6.6L227.5,282.4z M182.8,273.3h7.7c3.3,0,6-2.7,6-6
		v-0.3c0-3.3-2.7-6-6-6h-7.7V273.3z M196.5,292.5l-8.4-14.7h-5.4v14.7h-6.4v-36.4h15.3c5.9,0,10.7,4.8,10.7,10.7v0.4
		c0,4.8-3.2,8.9-7.5,10.2l8.6,15.2H196.5z M165.6,272.8v3c0,6.6-5.3,11.9-11.9,11.9h-3.7v-26.8h3.7
		C160.3,260.9,165.6,266.2,165.6,272.8 M155.3,256.1H144v36.4h11.3c8.9,0,16.1-7.2,16.1-16.1v-4.1
		C171.4,263.3,164.2,256.1,155.3,256.1 M138.4,288.1h-0.9c-0.8,0-1.5-0.7-1.5-1.5v-30.4h-6.4v30.2c0,9.5,9.4,6.4,9.4,6.4
		L138.4,288.1z M119.6,276.3h-12.8c0,0,1.2-7.3,6.4-7.3C118.4,269,119.6,273.7,119.6,276.3 M101.1,278.9c0,9.8,6.2,13.2,11.4,14.2
		c5.2,1,11.3-2.7,11.3-2.7s-1.2-2.2-2.4-3.7c-0.7,0.5-5.2,3.6-9.7,1.4c-4.6-2.2-5-7.7-5-7.7h17.9c1.2-12.2-5.3-15.9-10.9-15.9
		C108.4,264.5,101.1,269.1,101.1,278.9L101.1,278.9z M99.4,270c0,0,0.5-2,1.2-5c-6-2.9-11.6,5.8-11.6,5.8V265h-5.1v27.4h5.8v-16.7
		C94,268,99.4,270,99.4,270z M74.1,278.8c0,5.3-3.2,9.6-7.1,9.6c-3.9,0-7.1-4.3-7.1-9.6c0-5.3,3.2-9.6,7.1-9.6
		C71,269.2,74.1,273.5,74.1,278.8 M66.8,264.5c-7.2,0-12.9,6.4-12.9,14.3c0,7.9,5.8,14.3,12.9,14.3c7.1,0,12.9-6.4,12.9-14.3
		C79.8,270.9,74,264.5,66.8,264.5 M51.7,288c-3,3.4-7.2,5.4-11.7,5.4c-9.3,0-16.8-8.6-16.8-19.1c0-10.6,7.5-19.1,16.8-19.1
		c4.1,0,7.9,1.7,10.8,4.5l-3.4,4.3c-1.9-2.1-4.4-3.3-7.1-3.3c-6,0-10.9,6.1-10.9,13.7c0,7.6,4.9,13.7,10.9,13.7
		c2.9,0,5.6-1.5,7.6-3.9L51.7,288z"/>
</g>
<g>
	<defs>
		<path id="SVGID_00000172415726995774660910000006219306373822435255_" d="M104.3,141.9c2.3,4.8,4.6,9.2,6.5,12.8
			c3.3,6.2,6.4,11.4,9.7,16.2c0.9-3.3,2.1-6.7,3.6-10.3c-2.5-5.8-5-11.9-7.4-18.4c-5.2-14-9.8-29.2-12.4-44
			c-6.9-5-13.3-8.9-18.9-11.9C88.4,106.1,96.9,126.6,104.3,141.9"/>
	</defs>
	<clipPath id="SVGID_00000022544516417818923100000012222091223312207744_">
		<use xlink:href="#SVGID_00000172415726995774660910000006219306373822435255_"  style="overflow:visible;"/>
	</clipPath>
	
		<linearGradient id="SVGID_00000064350798835532661530000010564456513316671905_" gradientUnits="userSpaceOnUse" x1="-223.9855" y1="525.2706" x2="-223.5855" y2="525.2706" gradientTransform="matrix(-60.2805 -149.0676 149.0676 -60.2805 -91683.6875 -1560.9264)">
		<stop  offset="0" style="stop-color:#CA2027"/>
		<stop  offset="0.388" style="stop-color:#A21C3F"/>
		<stop  offset="0.749" style="stop-color:#912A6A"/>
		<stop  offset="1" style="stop-color:#74368A"/>
	</linearGradient>
	
		<polygon style="clip-path:url(#SVGID_00000022544516417818923100000012222091223312207744_);fill:url(#SVGID_00000064350798835532661530000010564456513316671905_);" points="
		153.3,158.9 118.5,72.8 55.8,98.1 90.6,184.3 	"/>
</g>
<g>
	<defs>
		<path id="SVGID_00000103973959217661420790000014097777080865926582_" d="M93.3,141.6c1.3,2.3,2.7,4.6,4.1,7
			c6.7,10.9,14.4,21.1,21.3,29.3c0.2-1,0.4-2,0.7-3.1c-2.8-3.8-5.5-7.7-7.8-11.3c-3.3-5.1-8.2-12.6-13.2-21.8
			c-8.6-15.7-17.9-36.5-21-59.4c-2.7-1.2-5.1-2.2-7-2.9C73,99.9,80.9,120,93.3,141.6"/>
	</defs>
	<clipPath id="SVGID_00000090295980252730947130000017100369674543042181_">
		<use xlink:href="#SVGID_00000103973959217661420790000014097777080865926582_"  style="overflow:visible;"/>
	</clipPath>
	
		<linearGradient id="SVGID_00000017497204909185039760000002066083086529827248_" gradientUnits="userSpaceOnUse" x1="-223.9855" y1="525.4184" x2="-223.5855" y2="525.4184" gradientTransform="matrix(-60.2818 -149.0689 149.0689 -60.2818 -91715.1172 -1548.2218)">
		<stop  offset="0" style="stop-color:#CA2027"/>
		<stop  offset="0.388" style="stop-color:#A21C3F"/>
		<stop  offset="0.749" style="stop-color:#912A6A"/>
		<stop  offset="1" style="stop-color:#74368A"/>
	</linearGradient>
	
		<polygon style="clip-path:url(#SVGID_00000090295980252730947130000017100369674543042181_);fill:url(#SVGID_00000017497204909185039760000002066083086529827248_);" points="
		153.6,164 112.5,62.4 36.1,93.3 77.2,194.9 	"/>
</g>
<g>
	<defs>
		<path id="SVGID_00000147206320710186042840000010466765598133360809_" d="M129.1,126.9c0.9,5.2,1.9,10.4,3,15.6
			c0.1,0.5,0.2,1,0.3,1.5c2.2-3.5,4.7-7.1,7.5-10.7c-2.6-3.3-5.3-6.6-8.1-9.7c-1.3-1.5-2.6-2.9-3.9-4.3
			C128.2,121.8,128.6,124.3,129.1,126.9"/>
	</defs>
	<clipPath id="SVGID_00000005236115405002439020000001762114897000742056_">
		<use xlink:href="#SVGID_00000147206320710186042840000010466765598133360809_"  style="overflow:visible;"/>
	</clipPath>
	
		<linearGradient id="SVGID_00000009564847214236593910000006866127986324430216_" gradientUnits="userSpaceOnUse" x1="-223.9855" y1="525.0753" x2="-223.5855" y2="525.0753" gradientTransform="matrix(-60.2818 -149.069 149.069 -60.2818 -91631.4922 -1582.0908)">
		<stop  offset="0" style="stop-color:#CA2027"/>
		<stop  offset="0.388" style="stop-color:#A21C3F"/>
		<stop  offset="0.749" style="stop-color:#912A6A"/>
		<stop  offset="1" style="stop-color:#74368A"/>
	</linearGradient>
	
		<polygon style="clip-path:url(#SVGID_00000005236115405002439020000001762114897000742056_);fill:url(#SVGID_00000009564847214236593910000006866127986324430216_);" points="
		148.5,140.5 138.2,115.1 119.3,122.7 129.5,148.2 	"/>
</g>
<g>
	<defs>
		<rect id="SVGID_00000178907381278411839520000006684614962585133451_" x="0" y="0.3" width="300" height="300"/>
	</defs>
	<clipPath id="SVGID_00000112615309559602736770000017138792633820008337_">
		<use xlink:href="#SVGID_00000178907381278411839520000006684614962585133451_"  style="overflow:visible;"/>
	</clipPath>
	<path style="clip-path:url(#SVGID_00000112615309559602736770000017138792633820008337_);fill:#98CA3C;" d="M221.6,90.8
		c-3.1,15-8.5,28.9-14.3,40.8c1.2,1.2,2.3,2.4,3.4,3.5c8.3-15.3,14.1-30,17.4-44.7C226.2,90.5,224,90.6,221.6,90.8 M196.7,95.4
		c-1.1,7.2-2.8,14.5-4.7,21.7c3.4,3.1,7.1,6.5,10.8,10.1c4.6-11,8.9-23.2,11.4-35.5C208.9,92.4,203,93.6,196.7,95.4"/>
</g>
<g>
	<defs>
		<path id="SVGID_00000129203316954536025710000013353567587774083754_" d="M206.6,133c-6.6,13.2-13.4,23.8-17.8,30.6
			c-5,7.7-11.8,16.8-17.2,23.7c0.2,0.5,0.4,1,0.6,1.4c8.3-9,20.7-23.6,30.7-40.1c2.5-4.1,4.9-8.2,7.1-12.2c0.2-0.4,0.5-0.8,0.7-1.3
			c-1.1-1.2-2.3-2.3-3.4-3.5C207.1,132.1,206.8,132.5,206.6,133 M191.7,118c-6.4,23-16.1,45.3-23.7,60.6c0.8,1.8,1.6,3.5,2.3,5.1
			c7.1-8.4,12.9-17,19.4-29.1c3.6-6.7,8.2-15.8,12.6-26.1l0.6-1.4c-3.7-3.5-7.4-7-10.8-10.1L191.7,118z M147.3,124.6
			c-2.7,2.9-5.2,5.8-7.5,8.7c9.9,12.5,17.2,24.3,22.5,34.3c1.9-7.5,3.9-15.7,5.7-24.2c1.2-5.5,2.2-11,3.1-16.4
			c1.3-7.6,2.4-15.2,3.2-22.7C165.1,109.1,155.7,115.7,147.3,124.6"/>
	</defs>
	<clipPath id="SVGID_00000176042638985866835800000017070396484642907317_">
		<use xlink:href="#SVGID_00000129203316954536025710000013353567587774083754_"  style="overflow:visible;"/>
	</clipPath>
	
		<linearGradient id="SVGID_00000149358379840804113200000003993381469522641302_" gradientUnits="userSpaceOnUse" x1="-223.4126" y1="525.102" x2="-223.0126" y2="525.102" gradientTransform="matrix(-87.4781 95.5526 -95.5526 -87.4781 30826.7559 67406.7812)">
		<stop  offset="0" style="stop-color:#ACD037"/>
		<stop  offset="1" style="stop-color:#DBD722"/>
	</linearGradient>
	
		<polygon style="clip-path:url(#SVGID_00000176042638985866835800000017070396484642907317_);fill:url(#SVGID_00000149358379840804113200000003993381469522641302_);" points="
		172.2,68.9 97.8,150.2 178.4,224 252.8,142.7 	"/>
</g>
<g>
	<defs>
		<path id="SVGID_00000021838599742067714880000017623505456714160526_" d="M156.6,198.6c5.2-5.4,9.6-10.1,13.6-14.9
			c-0.7-1.6-1.4-3.3-2.3-5.1C162.5,189.5,158.1,196.9,156.6,198.6"/>
	</defs>
	<clipPath id="SVGID_00000038372435000448359600000004655769297436178621_">
		<use xlink:href="#SVGID_00000021838599742067714880000017623505456714160526_"  style="overflow:visible;"/>
	</clipPath>
	
		<linearGradient id="SVGID_00000153690444158659279210000004960077984861783963_" gradientUnits="userSpaceOnUse" x1="-223.5244" y1="525.0912" x2="-223.1244" y2="525.0912" gradientTransform="matrix(-74.4659 -125.578 125.578 -74.4659 -82418.2031 11225.7402)">
		<stop  offset="0" style="stop-color:#E12B2B"/>
		<stop  offset="0.388" style="stop-color:#E3412B"/>
		<stop  offset="0.702" style="stop-color:#E66227"/>
		<stop  offset="1" style="stop-color:#F09B20"/>
	</linearGradient>
	
		<polygon style="clip-path:url(#SVGID_00000038372435000448359600000004655769297436178621_);fill:url(#SVGID_00000153690444158659279210000004960077984861783963_);" points="
		179,193.4 166.7,172.7 147.8,183.8 160.1,204.6 	"/>
</g>
<g>
	<defs>
		<path id="SVGID_00000096744342887382287790000010082986088183476127_" d="M162.9,198.3c0.3-0.3,3.9-3.8,9.3-9.6
			c-0.2-0.5-0.4-0.9-0.6-1.4C166.9,193.5,163.2,198,162.9,198.3"/>
	</defs>
	<clipPath id="SVGID_00000093145210349308465620000008097006243438635695_">
		<use xlink:href="#SVGID_00000096744342887382287790000010082986088183476127_"  style="overflow:visible;"/>
	</clipPath>
	
		<linearGradient id="SVGID_00000036964514229689173760000004562030775662851246_" gradientUnits="userSpaceOnUse" x1="-223.5244" y1="525.0635" x2="-223.1244" y2="525.0635" gradientTransform="matrix(-74.4656 -125.578 125.578 -74.4656 -82413.3984 11222.7783)">
		<stop  offset="0" style="stop-color:#E12B2B"/>
		<stop  offset="0.388" style="stop-color:#E3412B"/>
		<stop  offset="0.702" style="stop-color:#E66227"/>
		<stop  offset="1" style="stop-color:#F09B20"/>
	</linearGradient>
	
		<polygon style="clip-path:url(#SVGID_00000093145210349308465620000008097006243438635695_);fill:url(#SVGID_00000036964514229689173760000004562030775662851246_);" points="
		177.1,195.4 169.8,183.2 158.1,190.1 165.3,202.4 	"/>
</g>
<g>
	<defs>
		<path id="SVGID_00000114763970244739408200000003599951107863386017_" d="M132.4,144c6.1,28.6,14.5,54.9,14.5,54.9h6.6
			c0,0,4.3-13.3,8.9-31.3c-5.3-9.9-12.7-21.8-22.5-34.3C137,136.8,134.6,140.4,132.4,144"/>
	</defs>
	<clipPath id="SVGID_00000034805004414382441060000010036473874091242670_">
		<use xlink:href="#SVGID_00000114763970244739408200000003599951107863386017_"  style="overflow:visible;"/>
	</clipPath>
	
		<linearGradient id="SVGID_00000143618943513922084120000017369441620611501968_" gradientUnits="userSpaceOnUse" x1="-223.5244" y1="525.1387" x2="-223.1244" y2="525.1387" gradientTransform="matrix(-74.4659 -125.578 125.578 -74.4659 -82426.1094 11230.4258)">
		<stop  offset="0" style="stop-color:#E12B2B"/>
		<stop  offset="0.388" style="stop-color:#E3412B"/>
		<stop  offset="0.702" style="stop-color:#E66227"/>
		<stop  offset="1" style="stop-color:#F09B20"/>
	</linearGradient>
	
		<polygon style="clip-path:url(#SVGID_00000034805004414382441060000010036473874091242670_);fill:url(#SVGID_00000143618943513922084120000017369441620611501968_);" points="
		191.2,181.8 154.6,120.1 103.6,150.3 140.2,212 	"/>
</g>
<g>
	<defs>
		<path id="SVGID_00000099627100801559802730000007444428171595478700_" d="M120.4,170.8c6.7,9.9,13.7,17.8,23.4,27.8
			c-2.2-2.6-10.9-17.7-19.8-38.1C122.5,164.1,121.3,167.5,120.4,170.8"/>
	</defs>
	<clipPath id="SVGID_00000183943872085605851750000006664759394009704629_">
		<use xlink:href="#SVGID_00000099627100801559802730000007444428171595478700_"  style="overflow:visible;"/>
	</clipPath>
	
		<linearGradient id="SVGID_00000021833983936394291740000018252743259284140190_" gradientUnits="userSpaceOnUse" x1="-223.5244" y1="525.3282" x2="-223.1244" y2="525.3282" gradientTransform="matrix(-74.4659 -125.578 125.578 -74.4659 -82467.1562 11254.7656)">
		<stop  offset="0" style="stop-color:#E12B2B"/>
		<stop  offset="0.388" style="stop-color:#E3412B"/>
		<stop  offset="0.702" style="stop-color:#E66227"/>
		<stop  offset="1" style="stop-color:#F09B20"/>
	</linearGradient>
	
		<polygon style="clip-path:url(#SVGID_00000183943872085605851750000006664759394009704629_);fill:url(#SVGID_00000021833983936394291740000018252743259284140190_);" points="
		160.5,188.7 137.7,150.3 103.7,170.4 126.5,208.9 	"/>
</g>
<g>
	<defs>
		<path id="SVGID_00000068636876028208137130000003170281381702438063_" d="M118.6,177.9L118.6,177.9c10.1,12.1,18.4,20,18.8,20.4
			c-0.4-0.6-9.6-11.8-18.1-23.5C119.1,175.9,118.8,176.9,118.6,177.9"/>
	</defs>
	<clipPath id="SVGID_00000070081846031846416990000000893909923914438275_">
		<use xlink:href="#SVGID_00000068636876028208137130000003170281381702438063_"  style="overflow:visible;"/>
	</clipPath>
	
		<linearGradient id="SVGID_00000153707749234821865970000000211850823767120023_" gradientUnits="userSpaceOnUse" x1="-223.5244" y1="525.3896" x2="-223.1244" y2="525.3896" gradientTransform="matrix(-74.4659 -125.5793 125.5793 -74.4659 -82481.5859 11262.6377)">
		<stop  offset="0" style="stop-color:#E12B2B"/>
		<stop  offset="0.388" style="stop-color:#E3412B"/>
		<stop  offset="0.702" style="stop-color:#E66227"/>
		<stop  offset="1" style="stop-color:#F09B20"/>
	</linearGradient>
	
		<polygon style="clip-path:url(#SVGID_00000070081846031846416990000000893909923914438275_);fill:url(#SVGID_00000153707749234821865970000000211850823767120023_);" points="
		147.7,192.2 132.5,166.6 108.3,180.9 123.5,206.6 	"/>
</g>
</svg>
