<?xml version="1.0" encoding="utf-8"?>
<!-- Generator: Adobe Illustrator 27.0.1, SVG Export Plug-In . SVG Version: 6.00 Build 0)  -->
<svg version="1.1" id="Layer_1" xmlns="http://www.w3.org/2000/svg" xmlns:xlink="http://www.w3.org/1999/xlink" x="0px" y="0px"
	 width="400px" height="160px" viewBox="0 0 400 160" style="enable-background:new 0 0 400 160;" xml:space="preserve">
<style type="text/css">
	.st0{fill:#08A64E;}
	.st1{fill-rule:evenodd;clip-rule:evenodd;fill:#EDEDA5;}
	.st2{fill-rule:evenodd;clip-rule:evenodd;fill:#08A64E;}
	.st3{fill:none;stroke:#08A64E;stroke-width:3;stroke-miterlimit:10;}
</style>
<g>
	<path class="st0" d="M19.3,74.8v63H5v-63H19.3z"/>
	<path class="st0" d="M85,113.7c-0.3-7.6-0.6-16.7-0.6-25.9h-0.3c-2,8-4.6,17-7,24.4l-7.7,24.6H58.3l-6.7-24.4
		c-2.1-7.4-4.2-16.4-5.7-24.6h-0.2c-0.4,8.5-0.7,18.2-1.1,26.1l-1.1,23.9H30.3l4-63h19l6.2,21c2,7.3,3.9,15.2,5.3,22.5H65
		c1.8-7.3,3.9-15.6,6-22.6l6.7-20.9h18.6l3.5,63H85.9L85,113.7z"/>
	<path class="st0" d="M178.3,123.2c3.8,2,9.7,3.9,15.8,3.9c6.5,0,10-2.7,10-6.8c0-3.9-3-6.2-10.6-8.9c-10.5-3.6-17.3-9.4-17.3-18.6
		c0-10.8,9-19,23.8-19c7.1,0,12.3,1.5,16.1,3.2L213,88.5c-2.5-1.2-7-3-13.2-3s-9.2,2.8-9.2,6.1c0,4,3.6,5.8,11.7,8.9
		c11.1,4.1,16.4,9.9,16.4,18.8c0,10.6-8.1,19.5-25.4,19.5c-7.2,0-14.3-1.9-17.9-3.8L178.3,123.2z"/>
	<path class="st0" d="M297.2,92.1c-0.2,2.9-0.4,6.7-0.4,13.6v25.5c0,8.8-1.8,16-6.9,20.6c-5,4.3-11.9,5.6-18.6,5.6
		c-6,0-12.3-1.2-16.5-3.6l2.8-10.8c2.9,1.7,7.9,3.5,13.3,3.5c6.7,0,11.9-3.6,11.9-12.1v-3h-0.2c-2.7,3.8-7.1,6-12.3,6
		c-11.3,0-19.4-9.2-19.4-22.4c0-14.7,9.5-24,20.8-24c6.3,0,10.2,2.7,12.5,6.5h0.2l0.5-5.4C284.9,92.1,297.2,92.1,297.2,92.1z
		 M282.6,110.7c0-0.9-0.1-1.9-0.3-2.6c-1-3.7-3.7-6.3-7.7-6.3c-5.1,0-9.4,4.7-9.4,13c0,6.8,3.4,12.2,9.4,12.2c3.6,0,6.5-2.4,7.5-5.8
		c0.4-1,0.5-2.5,0.5-3.7V110.7z"/>
	<path class="st0" d="M308.2,106.7c0-5.7-0.2-10.6-0.4-14.6h12.3l0.7,6.3h0.3c1.9-2.9,6.5-7.3,14.1-7.3c9.4,0,16.4,6.2,16.4,19.6
		v27.1h-14.2v-25.3c0-5.9-2.1-9.9-7.2-9.9c-3.9,0-6.3,2.7-7.2,5.3c-0.4,0.8-0.6,2.2-0.6,3.6v26.4h-14.2L308.2,106.7L308.2,106.7z"/>
	<path class="st0" d="M362.9,125.4c2.6,1.6,8,3.5,12.3,3.5s6.1-1.5,6.1-3.8s-1.4-3.5-6.7-5.2c-9.4-3.2-13.1-8.3-13-13.7
		c0-8.5,7.3-15,18.6-15c5.3,0,10.1,1.2,12.9,2.6l-2.5,9.8c-2.1-1.1-6-2.6-9.9-2.6c-3.5,0-5.4,1.4-5.4,3.7c0,2.2,1.8,3.3,7.4,5.2
		c8.7,3,12.3,7.4,12.4,14.1c0,8.5-6.7,14.8-19.8,14.8c-6,0-11.3-1.3-14.8-3.2L362.9,125.4z"/>
	<g>
		<g>
			<path class="st1" d="M323.8,32.2l21-19.8c4.9-3.9,9.1,1.8,4.2,5.4l-23.5,17C321.7,37.2,320.9,35.1,323.8,32.2"/>
			<path class="st1" d="M333.2,48l32-0.6c6,0.7,5.9,8,0.2,7.2L333,51.3C328.8,50.3,329.4,48.1,333.2,48"/>
			<path class="st1" d="M331.2,58.7l14.7,4.8c5.4,3,3.2,9.9-2,6.9L330,61.7C326.3,59,327.5,57.3,331.2,58.7"/>
			<path class="st1" d="M316.9,70.9l5.7,12.5c1.8,6.5-4.1,9.4-5.7,3.1L314.2,72C313.3,67.1,315.3,66.9,316.9,70.9"/>
			<path class="st1" d="M307.4,69.4l-1,26.6c-1.8,6.5-8.1,4.9-6.2-1.3l4.5-26.2C306.4,63.9,308.1,65,307.4,69.4"/>
			<path class="st1" d="M292.9,63.1l-10.2,16.7c-5,3.9-9-1.8-4.2-5.4l12.7-13.9C295.1,58.2,295.8,60.2,292.9,63.1"/>
			<path class="st1" d="M284.9,53L270,59.8c-4.8,1-7-4.8-1.7-7l16.2-3C288.8,49.6,288.7,51.8,284.9,53"/>
			<path class="st1" d="M291,36.6l-12.8-6.4c-4.4-4.6-0.6-10.5,3.6-6l11,9.9C295.8,37.8,294.2,39.1,291,36.6"/>
			<path class="st1" d="M297.8,28.7L287.3,9.4c-2.1-6.4,3.6-9.7,5.6-3.5l7.6,21.5C301.5,32.2,299.6,32.6,297.8,28.7"/>
			<path class="st1" d="M318.4,26.8l3.9-13.2c2.7-6.1,8.7-3.5,6,2.4L321,28.1C318.6,32.3,317.1,30.9,318.4,26.8"/>
			<polygon class="st1" points="317.6,38.8 340,37.5 321.8,51.5 329.3,72 309.6,60.9 291.1,75.4 297.3,53.8 276.8,42 300.9,40.5 
				308.4,13.3 			"/>
		</g>
		<path class="st2" d="M290.5,55.5c1.3,0.7,1.3,2.2,0,3.3C267.6,70,238,98.3,237.4,138.5l-14,0.3C223.6,93.5,251.9,65.3,290.5,55.5"
			/>
	</g>
	<path class="st2" d="M110.9,106.3c0-15.2,12.3-27.7,27.6-27.7c15.2,0,27.5,12.5,27.5,27.7c0,15.3-12.4,27.8-27.5,27.8
		C123.2,134,110.9,121.6,110.9,106.3z M122.5,106.3c0-8.8,7.2-16.1,16-16.1s16,7.2,16,16.1s-7.2,16.1-16,16.1
		C129.6,122.4,122.5,115.2,122.5,106.3z"/>
	<g>
		<path class="st3" d="M131.2,132.8c-5.2,13.1-32.4-15.2-19.4-20"/>
		<path class="st3" d="M164.5,113.8c13,5.2-14.3,32.4-19.1,19.3"/>
		<path class="st3" d="M145.8,80.1C151,67,178,94.6,165,99.4"/>
		<path class="st3" d="M112.1,98.4c-13-5.2,15.7-31.7,20.4-18.6"/>
	</g>
</g>
</svg>
