<?xml version="1.0" encoding="utf-8"?>
<!-- Generator: Adobe Illustrator 25.4.1, SVG Export Plug-In . SVG Version: 6.00 Build 0)  -->
<svg version="1.1" id="Layer_1" xmlns="http://www.w3.org/2000/svg" xmlns:xlink="http://www.w3.org/1999/xlink" x="0px" y="0px"
	 width="48px" height="18.76px" viewBox="0 0 48 18.76" enable-background="new 0 0 48 18.76" xml:space="preserve">
<g>
	<path fill="#FFFFFF" d="M29.01,14.87c-0.02-2.04-1.71-3.68-3.75-3.68c-1.95,0-3.56,1.5-3.73,3.42c0,0.12-0.02,0.23-0.02,0.33
		c0,2.06,1.69,3.75,3.75,3.75s3.75-1.69,3.75-3.75C29.01,14.91,29.01,14.89,29.01,14.87z"/>
	<path fill="#FED01A" d="M3.12,10.9c-0.54,0-1.08-0.07-1.62-0.23c-0.49-0.14-1.01-0.38-1.5-0.66l0.84-2.18
		C1.22,8.09,1.57,8.3,1.87,8.42c0.35,0.16,0.7,0.23,1.03,0.23c0.26,0,0.45-0.05,0.59-0.16C3.65,8.37,3.75,8.21,3.75,8
		c0-0.52-0.77-0.68-1.03-0.73L2.25,7.18C1.78,7.06,1.41,6.85,1.1,6.59L1.08,6.57L1.03,6.52C0.98,6.47,0.94,6.43,0.89,6.36
		c-0.3-0.38-0.47-0.87-0.47-1.45c0-0.91,0.3-1.66,0.91-2.25S2.79,1.78,3.8,1.78c0.47,0,0.94,0.07,1.38,0.19
		c0.42,0.12,0.84,0.3,1.27,0.52l-0.8,2.02C5.39,4.34,5.16,4.2,4.9,4.08C4.6,3.96,4.27,3.89,3.99,3.89c-0.26,0-0.45,0.05-0.59,0.14
		C3.24,4.15,3.14,4.29,3.14,4.5c0,0.35,0.45,0.61,1.41,0.84l0.3,0.07c0.54,0.12,0.98,0.4,1.29,0.8c0.16,0.21,0.3,0.47,0.38,0.75
		l0.02,0.07c0.05,0.21,0.07,0.42,0.07,0.63c0,0.94-0.33,1.74-0.96,2.32C4.99,10.6,4.15,10.9,3.12,10.9L3.12,10.9L3.12,10.9z"/>
	<path fill="#FED01A" d="M17.52,1.95h5.35v2.09c-0.61,0-2.63,0-2.63,0v1.41h2.37v1.97c-0.56,0-2.37,0-2.37,0s0,2.51,0,3.21h-2.72
		C17.52,10.63,17.52,1.95,17.52,1.95z"/>
	<path fill="#FED01A" d="M23.61,1.92h5.35v2.09c-0.61,0-2.7,0-2.7,0v1.22c0,0,1.85,0,2.44,0V7.2h-2.44v1.31c0,0,2.13,0,2.77,0v2.09
		h-5.42V1.92z"/>
	<path fill="#FED01A" d="M31.37,4.53h-1.69V1.9l6.1-0.02v2.63c-0.45,0-1.69,0-1.69,0v6.07h-2.7L31.37,4.53z"/>
	<path fill="#FED01A" d="M39.28,6.71L36.56,1.9h3.07l0.68,1.64c0.07,0.14,0.14,0.35,0.21,0.61l0.19,0.63l0.21-0.63
		c0.05-0.14,0.09-0.3,0.19-0.52l0.05-0.09l0.66-1.64h3.05c-0.66,1.1-2.81,4.83-2.81,4.83v3.87h-2.72L39.28,6.71z"/>
	<path fill="#FFFFFF" d="M14.84,7.29c-1.17-2.02-2.51-4.36-2.91-5.06C11.44,3.1,9.54,6.4,9.54,6.4s-0.16,0.28-0.4,0.68
		C8.55,8.09,7.5,9.94,7.15,10.55c0.98,0,8.61,0,9.57,0C16.51,10.18,15.73,8.82,14.84,7.29z"/>
	<path fill="#1E1E1C" d="M8.42,15.01h1.06l-0.23,1.17c-0.02,0.12,0.05,0.16,0.19,0.16c0.14,0,0.23-0.05,0.26-0.19l0.12-0.61
		c0.05-0.19-0.05-0.4-0.26-0.66c-0.4-0.47-0.66-0.77-0.75-0.94c-0.09-0.16-0.12-0.33-0.07-0.52l0.12-0.54
		C9,12.22,9.52,11.9,10.41,11.9c0.8,0,1.15,0.3,1.03,0.89l-0.19,0.87h-1.06l0.19-0.94c0.02-0.09-0.02-0.14-0.14-0.14
		c-0.14,0-0.23,0.09-0.28,0.28l-0.05,0.33c-0.05,0.19,0.05,0.4,0.26,0.66c0.4,0.45,0.66,0.75,0.75,0.94s0.12,0.38,0.07,0.61
		l-0.14,0.66c-0.14,0.68-0.66,1.01-1.55,1.01c-0.87,0-1.24-0.3-1.13-0.91L8.42,15.01z"/>
	<polygon fill="#1E1E1C" points="11.94,17.02 10.88,17.02 11.72,12.92 12.78,12.92 	"/>
	<path fill="#E30D13" d="M18.67,10.15L17.1,7.41l-3.85-6.64C12.97,0.3,12.48,0,11.94,0s-1.06,0.28-1.31,0.77c0,0-2.79,4.83-2.81,4.9
		L6.96,7.08l-1.78,3.07c-0.14,0.23-0.21,0.49-0.21,0.77c0,0.26,0.07,0.54,0.21,0.77c0.28,0.47,0.77,0.77,1.31,0.77h2.25
		c0.21-0.4,0.68-0.75,1.64-0.75c0.54,0,0.89,0.12,1.1,0.38c0.05,0.07,0.09,0.12,0.12,0.21l0.12-0.52h1.52l-0.14,0.7h0.3h3.94
		c0.54,0,1.06-0.28,1.31-0.77C18.95,11.21,18.95,10.62,18.67,10.15z M8.11,5.58L8.11,5.58C8.11,5.56,8.11,5.56,8.11,5.58
		C8.11,5.56,8.11,5.56,8.11,5.58L8.11,5.58L8.11,5.58L8.11,5.58z M7.15,10.55C7.5,9.94,8.56,8.11,9.14,7.08
		c0.23-0.42,0.4-0.68,0.4-0.68s1.9-3.31,2.39-4.15c0.4,0.7,1.76,3.02,2.91,5.06c0.87,1.52,1.66,2.88,1.88,3.24
		C15.73,10.55,8.11,10.55,7.15,10.55z"/>
	<polygon fill="#1E1E1C" points="12.83,12.69 11.77,12.69 11.91,11.96 12.97,11.96 	"/>
	<path fill="#1E1E1C" d="M12.17,17.89l0.12-0.61h0.87c0.26,0,0.4-0.12,0.45-0.35c-0.16,0.09-0.38,0.14-0.68,0.14
		c-0.21,0-0.38-0.05-0.52-0.16c-0.14-0.09-0.19-0.23-0.14-0.42l0.59-2.95c0.09-0.45,0.42-0.68,0.98-0.68c0.14,0,0.33,0.07,0.54,0.19
		l0.16-0.16h0.91l-0.82,4.06c-0.05,0.26-0.16,0.49-0.3,0.66c-0.14,0.19-0.52,0.26-1.08,0.26L12.17,17.89L12.17,17.89z M13.72,16.3
		l0.52-2.58c0.02-0.12-0.02-0.19-0.14-0.19s-0.19,0.07-0.23,0.19l-0.52,2.58c-0.02,0.12,0.02,0.19,0.14,0.19
		C13.62,16.49,13.69,16.41,13.72,16.3z"/>
	<path fill="#1E1E1C" d="M17.33,17.02h-1.06l0.66-3.31c0.02-0.12-0.02-0.19-0.14-0.19s-0.21,0.07-0.23,0.21l-0.66,3.31h-1.06
		l0.82-4.1h1.06l-0.02,0.14c0.16-0.12,0.4-0.16,0.68-0.16c0.19,0,0.35,0.05,0.49,0.14s0.19,0.23,0.16,0.45L17.33,17.02z"/>
	<path fill="#1E1E1C" d="M17.87,15.38h1.06l-0.16,0.87c-0.02,0.14,0.02,0.21,0.14,0.21s0.21-0.14,0.26-0.4
		c0.07-0.35,0.05-0.56-0.09-0.68c-0.49-0.28-0.77-0.47-0.87-0.59c-0.09-0.12-0.12-0.28-0.07-0.49l0.12-0.56
		c0.12-0.59,0.59-0.87,1.41-0.87c0.8,0,1.13,0.28,1.03,0.84l-0.19,0.82h-1.03l0.12-0.49c0.07-0.35,0.05-0.52-0.09-0.52
		s-0.21,0.12-0.26,0.33c-0.05,0.21-0.05,0.4-0.02,0.49c0.02,0.12,0.3,0.3,0.84,0.59c0.21,0.16,0.28,0.4,0.23,0.66l-0.12,0.61
		c-0.12,0.59-0.59,0.87-1.43,0.87c-0.82,0-1.17-0.28-1.06-0.84L17.87,15.38z"/>
	<path fill="#1E1E1C" d="M32.64,17.02h-1.2l-0.26-2.7l-0.54,2.7h-0.96l1.03-5.09h1.31l0.21,2.32l0.47-2.32h0.96L32.64,17.02z"/>
	<path fill="#1E1E1C" d="M33.02,16.23l0.49-2.46c0.12-0.59,0.59-0.87,1.43-0.87c0.33,0,0.59,0.07,0.82,0.21
		c0.21,0.14,0.3,0.35,0.23,0.63l-0.52,2.53c-0.12,0.56-0.59,0.82-1.38,0.82C33.25,17.09,32.9,16.81,33.02,16.23z M34.45,16.25
		l0.52-2.51c0.02-0.14-0.02-0.21-0.14-0.21s-0.21,0.07-0.23,0.21l-0.49,2.51c-0.02,0.14,0.02,0.21,0.14,0.21
		C34.33,16.46,34.42,16.39,34.45,16.25z"/>
	<path fill="#1E1E1C" d="M37.61,17.02h-0.66c-0.47,0-0.75-0.07-0.82-0.21s-0.07-0.4,0.02-0.8l0.52-2.51H36.2l0.12-0.61h0.47
		l0.16-0.84h1.06l-0.16,0.84h0.56l-0.12,0.61h-0.56l-0.52,2.53c-0.02,0.12,0,0.21,0.07,0.23c0.07,0.05,0.23,0.07,0.47,0.07
		L37.61,17.02z"/>
	<path fill="#1E1E1C" d="M38.85,17.02H37.8l0.82-4.1h1.06L38.85,17.02z M39.72,12.69h-1.06l0.14-0.73h1.06L39.72,12.69z"/>
	<path fill="#1E1E1C" d="M42,14.75h-1.06l0.21-1.01c0.02-0.14-0.02-0.21-0.14-0.21s-0.19,0.07-0.21,0.21l-0.52,2.51
		c-0.02,0.14,0.02,0.21,0.14,0.21s0.19-0.07,0.21-0.21l0.19-0.98h1.06l-0.21,1.01c-0.12,0.56-0.56,0.84-1.38,0.84
		s-1.2-0.28-1.08-0.87l0.49-2.46c0.12-0.59,0.59-0.87,1.43-0.87c0.8,0,1.15,0.28,1.06,0.84L42,14.75z"/>
	<path fill="#1E1E1C" d="M44.58,15.29h-1.41l-0.19,0.94c-0.02,0.14,0.02,0.21,0.14,0.21s0.19-0.07,0.21-0.21l0.16-0.82h1.06
		l-0.16,0.84c-0.12,0.56-0.59,0.82-1.41,0.82s-1.17-0.28-1.06-0.87l0.49-2.46c0.12-0.59,0.59-0.87,1.41-0.87s1.17,0.28,1.08,0.84
		L44.58,15.29z M43.66,14.68l0.19-0.94c0.02-0.14-0.02-0.21-0.14-0.21s-0.19,0.07-0.21,0.21l-0.19,0.94H43.66z"/>
	<path fill="#1E1E1C" d="M44.79,15.38h1.06l-0.16,0.87c-0.02,0.14,0.02,0.21,0.14,0.21s0.21-0.14,0.26-0.4
		c0.07-0.35,0.05-0.56-0.09-0.68c-0.49-0.28-0.77-0.47-0.87-0.59c-0.09-0.12-0.12-0.28-0.07-0.49l0.12-0.56
		c0.12-0.59,0.59-0.87,1.41-0.87c0.8,0,1.13,0.28,1.03,0.84l-0.16,0.82h-1.03l0.12-0.49c0.07-0.35,0.05-0.52-0.09-0.52
		s-0.21,0.12-0.26,0.33s-0.05,0.4-0.02,0.49c0.02,0.12,0.33,0.3,0.84,0.59c0.21,0.16,0.28,0.4,0.23,0.66l-0.12,0.61
		c-0.12,0.59-0.59,0.87-1.43,0.87c-0.82,0-1.17-0.28-1.06-0.84L44.79,15.38z"/>
	<path fill="#E30D13" d="M29.08,14.87c-0.05-2.09-1.74-3.75-3.82-3.75c-1.99,0-3.63,1.52-3.8,3.47c0,0.12-0.02,0.23-0.02,0.35
		c0,2.11,1.71,3.82,3.82,3.82s3.82-1.71,3.82-3.82C29.08,14.91,29.08,14.89,29.08,14.87z M25.25,17.7c-1.52,0-2.77-1.24-2.77-2.77
		v-0.02c0-1.52,1.24-2.74,2.77-2.74c0.54,0,1.03,0.14,1.45,0.42l-2.72,2.72l-1.08,1.08c0.23,0.38,0.54,0.68,0.91,0.91L26,15.12
		l1.62-1.62c0.26,0.42,0.42,0.91,0.42,1.45c0,0.05,0,0.07,0,0.12C27.95,16.53,26.73,17.7,25.25,17.7z"/>
	<path fill="#1E1E1C" d="M24.76,16.67c-0.33,0-0.56-0.09-0.75-0.28c-0.16-0.19-0.26-0.42-0.26-0.7c0-0.21,0.05-0.38,0.14-0.49
		c0.09-0.12,0.26-0.21,0.47-0.3l0.21-0.09l-0.19-0.12c-0.3-0.19-0.45-0.45-0.45-0.75c0-0.28,0.09-0.49,0.3-0.66
		c0.21-0.16,0.52-0.26,0.89-0.26c0.33,0,0.61,0.09,0.8,0.26c0.19,0.16,0.28,0.38,0.28,0.61c0,0.26-0.12,0.49-0.35,0.73l-0.07,0.07
		l0.54,0.89l0.61-0.35v0.49l-0.4,0.23l0.4,0.66h-0.87l-0.19-0.28l-0.09,0.05C25.44,16.56,25.09,16.67,24.76,16.67z M24.97,15.27
		c-0.19,0.14-0.28,0.3-0.28,0.49c0,0.14,0.02,0.23,0.09,0.3s0.16,0.12,0.3,0.12c0.12,0,0.26-0.05,0.4-0.14l0.09-0.07l-0.54-0.8
		L24.97,15.27z M25.14,13.37c-0.12,0-0.21,0.05-0.23,0.09c-0.05,0.07-0.07,0.14-0.07,0.26c0,0.21,0.09,0.4,0.26,0.56l0.09,0.09
		l0.07-0.07c0.16-0.19,0.23-0.38,0.23-0.54c0-0.09-0.02-0.16-0.09-0.26C25.35,13.41,25.25,13.37,25.14,13.37z"/>
	<g>
		<path fill="#1E1E1C" d="M45.89,1.92v-1.1h-0.4V0.59h1.06v0.23h-0.4v1.1H45.89z"/>
		<path fill="#1E1E1C" d="M46.73,1.92V0.59h0.4l0.23,0.91l0.23-0.91H48v1.34h-0.23V0.87l-0.26,1.06h-0.26l-0.23-1.06v1.06
			L46.73,1.92L46.73,1.92z"/>
	</g>
</g>
</svg>
