<?xml version="1.0" encoding="utf-8"?>
<!-- Generator: Adobe Illustrator 26.5.0, SVG Export Plug-In . SVG Version: 6.00 Build 0)  -->
<svg version="1.1"
	 id="svg2" xmlns:dc="http://purl.org/dc/elements/1.1/" xmlns:cc="http://creativecommons.org/ns#" xmlns:sodipodi="http://sodipodi.sourceforge.net/DTD/sodipodi-0.dtd" xmlns:inkscape="http://www.inkscape.org/namespaces/inkscape" xmlns:rdf="http://www.w3.org/1999/02/22-rdf-syntax-ns#" xmlns:svg="http://www.w3.org/2000/svg" inkscape:version="0.91 r13725" sodipodi:docname="DPD logo (2015).svg"
	 xmlns="http://www.w3.org/2000/svg" xmlns:xlink="http://www.w3.org/1999/xlink" x="0px" y="0px" width="200px" height="100px"
	 viewBox="0 0 200 100" style="enable-background:new 0 0 200 100;" xml:space="preserve">
<style type="text/css">
	.st0{fill-rule:evenodd;clip-rule:evenodd;fill:#3F3F42;}
	.st1{fill-rule:evenodd;clip-rule:evenodd;fill:#DC0032;}
	.st2{fill-rule:evenodd;clip-rule:evenodd;fill:#DB0032;}
	.st3{fill-rule:evenodd;clip-rule:evenodd;fill:#DA0032;}
	.st4{fill-rule:evenodd;clip-rule:evenodd;fill:#D90032;}
	.st5{fill-rule:evenodd;clip-rule:evenodd;fill:#D80032;}
	.st6{fill-rule:evenodd;clip-rule:evenodd;fill:#D70032;}
	.st7{fill-rule:evenodd;clip-rule:evenodd;fill:#D60032;}
	.st8{fill-rule:evenodd;clip-rule:evenodd;fill:#D50032;}
	.st9{fill-rule:evenodd;clip-rule:evenodd;fill:#D40032;}
	.st10{fill-rule:evenodd;clip-rule:evenodd;fill:#D30032;}
	.st11{fill-rule:evenodd;clip-rule:evenodd;fill:#D20032;}
	.st12{fill-rule:evenodd;clip-rule:evenodd;fill:#D10032;}
	.st13{fill-rule:evenodd;clip-rule:evenodd;fill:#D00032;}
	.st14{fill-rule:evenodd;clip-rule:evenodd;fill:#CF0032;}
	.st15{fill-rule:evenodd;clip-rule:evenodd;fill:#CE0032;}
	.st16{fill-rule:evenodd;clip-rule:evenodd;fill:#CD0032;}
	.st17{fill-rule:evenodd;clip-rule:evenodd;fill:#CC0032;}
	.st18{fill-rule:evenodd;clip-rule:evenodd;fill:#CB0032;}
	.st19{fill-rule:evenodd;clip-rule:evenodd;fill:#CA0032;}
	.st20{fill-rule:evenodd;clip-rule:evenodd;fill:#C90032;}
	.st21{fill-rule:evenodd;clip-rule:evenodd;fill:#C80033;}
	.st22{fill-rule:evenodd;clip-rule:evenodd;fill:#C70033;}
	.st23{fill-rule:evenodd;clip-rule:evenodd;fill:#C60033;}
	.st24{fill-rule:evenodd;clip-rule:evenodd;fill:#C50033;}
	.st25{fill-rule:evenodd;clip-rule:evenodd;fill:#C40033;}
	.st26{fill-rule:evenodd;clip-rule:evenodd;fill:#C30033;}
	.st27{fill-rule:evenodd;clip-rule:evenodd;fill:#C20033;}
	.st28{fill-rule:evenodd;clip-rule:evenodd;fill:#C10033;}
	.st29{fill-rule:evenodd;clip-rule:evenodd;fill:#C00033;}
	.st30{fill-rule:evenodd;clip-rule:evenodd;fill:#BF0033;}
	.st31{fill-rule:evenodd;clip-rule:evenodd;fill:#BE0033;}
	.st32{fill-rule:evenodd;clip-rule:evenodd;fill:#BD0033;}
	.st33{fill-rule:evenodd;clip-rule:evenodd;fill:#BC0033;}
	.st34{fill-rule:evenodd;clip-rule:evenodd;fill:#BB0033;}
</style>
<sodipodi:namedview  bordercolor="#666666" borderopacity="1" gridtolerance="10" guidetolerance="10" id="namedview207" inkscape:current-layer="svg2" inkscape:cx="88.582677" inkscape:cy="37.204724" inkscape:document-units="mm" inkscape:pageopacity="0" inkscape:pageshadow="2" inkscape:window-height="480" inkscape:window-maximized="0" inkscape:window-width="640" inkscape:window-x="0" inkscape:window-y="0" inkscape:zoom="1.7215556" objecttolerance="10" pagecolor="#ffffff" showgrid="false">
	</sodipodi:namedview>
<g>
	<path id="path7" inkscape:connector-curvature="0" class="st0" d="M131.2,75.5c-3.7,1-8.5,1.5-12.7,1.5c-10.8,0-17.9-5.6-17.9-15.9
		c0-9.8,6.6-16.1,16.3-16.1c2.2,0,4.5,0.3,5.9,0.9V31.8h8.4V75.5z M122.8,53.2c-1.3-0.6-3.1-0.9-5.2-0.9c-5.1,0-8.5,3.1-8.5,8.5
		c0,5.8,3.6,9.1,9.6,9.1c1,0,2.7,0,4.1-0.3V53.2z M200,75.5c-3.7,1-8.5,1.5-12.8,1.5c-10.7,0-17.9-5.6-17.9-15.9
		c0-9.8,6.6-16.1,16.3-16.1c2.2,0,4.5,0.3,5.9,0.9V31.8h8.5V75.5z M191.5,53.2c-1.3-0.6-3-0.9-5.1-0.9c-5.2,0-8.5,3.1-8.5,8.5
		c0,5.8,3.7,9.1,9.7,9.1c1,0,2.6,0,4-0.3V53.2z M144.4,53.2c1.4-0.6,3.4-0.8,5-0.8c5.2,0,8.7,2.9,8.7,8.2c0,6.2-4,9.1-9.2,9.1v7.2
		h0.4c10.9,0,17.4-6,17.4-16.6c0-9.7-6.9-15.4-17.1-15.4c-5.2,0-10.3,1.2-13.6,2.6v41h8.5L144.4,53.2z"/>
	<path id="path9" inkscape:connector-curvature="0" class="st1" d="M71.8,26.2L71.8,26.2L71.8,26.2L71.8,26.2z"/>
	<path id="path11" inkscape:connector-curvature="0" class="st1" d="M69.7,25.1l1.4,1.6l0.8-0.4L69.7,25.1z"/>
	<path id="path13" inkscape:connector-curvature="0" class="st1" d="M67.7,23.9l2.7,3.1l0.9-0.5l-1-1.2
		C70.3,25.3,67.7,23.9,67.7,23.9z"/>
	<path id="path15" inkscape:connector-curvature="0" class="st1" d="M65.5,22.8l4.1,4.7l0.9-0.5l-2.3-2.8
		C68.2,24.2,65.5,22.8,65.5,22.8z"/>
	<path id="path17" inkscape:connector-curvature="0" class="st1" d="M63.4,21.7l5.4,6.2l0.9-0.5L66,23.1L63.4,21.7z M73.7,32.6
		L73.1,33l0.6,0.7C73.7,33.7,73.7,32.6,73.7,32.6z"/>
	<path id="path19" inkscape:connector-curvature="0" class="st1" d="M61.4,20.6l6.6,7.8l0.9-0.5l-5-5.9L61.4,20.6z M73.4,32.8
		l-0.9,0.6l1.3,1.6v-1.6L73.4,32.8L73.4,32.8z"/>
	<path id="path21" inkscape:connector-curvature="0" class="st1" d="M59.2,19.4l8,9.3l1-0.5l-6.4-7.4C61.9,20.8,59.2,19.4,59.2,19.4
		z M72.6,33.3l-0.9,0.6l2.1,2.4v-1.6C73.7,34.6,72.6,33.3,72.6,33.3z"/>
	<path id="path23" inkscape:connector-curvature="0" class="st1" d="M57.1,18.3l9.4,10.9l0.9-0.5l-7.8-9
		C59.7,19.7,57.1,18.3,57.1,18.3z M71.8,33.8l-0.9,0.5l2.8,3.4V36C73.7,36,71.8,33.8,71.8,33.8z"/>
	<path id="path25" inkscape:connector-curvature="0" class="st1" d="M55.1,17.2l10.7,12.4l0.9-0.5l-9.1-10.5
		C57.7,18.6,55.1,17.2,55.1,17.2z M71,34.2l-0.9,0.5l3.6,4.2v-1.6C73.7,37.3,71,34.2,71,34.2z"/>
	<path id="path27" inkscape:connector-curvature="0" class="st1" d="M52.9,16.1l12.1,14l0.9-0.5L55.6,17.5
		C55.6,17.5,52.9,16.1,52.9,16.1z M70.3,34.6l-0.9,0.5l4.4,5.1v-1.6L70.3,34.6z"/>
	<path id="path29" inkscape:connector-curvature="0" class="st1" d="M50.8,15l13.4,15.6l0.9-0.6L53.4,16.3L50.8,15z M69.5,35.1
		l-0.9,0.5l5.2,6V40C73.7,40,69.5,35.1,69.5,35.1z"/>
	<path id="path31" inkscape:connector-curvature="0" class="st1" d="M48.7,13.8L63.4,31l0.9-0.6l-13-15.2L48.7,13.8z M68.8,35.5
		l-1,0.5l6,6.9v-1.6L68.8,35.5z"/>
	<path id="path33" inkscape:connector-curvature="0" class="st1" d="M46.6,12.7l16.1,18.7l1-0.6L49.3,14.1L46.6,12.7z M68,35.9
		l-0.9,0.5l6.6,7.9v-1.7C73.7,42.6,68,35.9,68,35.9z"/>
	<path id="path35" inkscape:connector-curvature="0" class="st1" d="M44.5,11.6L62,31.9l0.9-0.6L47.1,13
		C47.1,13,44.5,11.6,44.5,11.6z M67.2,36.4l-0.9,0.5l7.4,8.7V44C73.7,44,67.2,36.4,67.2,36.4z"/>
	<path id="path37" inkscape:connector-curvature="0" class="st1" d="M42.4,10.4l18.8,21.9l0.9-0.6L45.1,11.8L42.4,10.4z M66.5,36.8
		l-0.9,0.5l8.2,9.6v-1.6C73.7,45.3,66.5,36.8,66.5,36.8z"/>
	<path id="path39" inkscape:connector-curvature="0" class="st1" d="M40.3,9.3l20.1,23.5l0.9-0.5L43,10.7L40.3,9.3z M65.7,37.2
		l-0.9,0.5l9,10.5v-1.7C73.7,46.5,65.7,37.2,65.7,37.2z"/>
	<path id="path41" inkscape:connector-curvature="0" class="st1" d="M38.2,8.2l21.4,24.9l0.9-0.5l-19.8-23L38.2,8.2L38.2,8.2z
		 M64.9,37.7L64,38.2l9.8,11.4v-1.6L64.9,37.7z"/>
	<path id="path43" inkscape:connector-curvature="0" class="st1" d="M36.9,7.9L36.9,7.9l22,25.7l0.9-0.5L38.8,8.5l-0.5-0.3
		C37.8,8,37.4,7.9,36.9,7.9z M64.1,38.1l-0.9,0.5l10.5,12.3v-1.6C73.7,49.2,64.1,38.1,64.1,38.1z"/>
	<path id="path45" inkscape:connector-curvature="0" class="st1" d="M36.9,7.9c-0.3,0-0.7,0.1-1,0.2l22.3,26l1-0.5l-22-25.6
		C37,7.9,36.9,7.9,36.9,7.9z M63.4,38.5L62.5,39l11.2,13.2v-1.7C73.7,50.5,63.4,38.5,63.4,38.5z"/>
	<path id="path47" inkscape:connector-curvature="0" class="st1" d="M36.1,8c-0.2,0.1-0.4,0.2-0.5,0.3L35,8.5l22.4,26l0.9-0.5
		C58.4,33.9,36.1,8,36.1,8z M62.7,39l-0.9,0.6l12,14v-1.6L62.7,39z"/>
	<path id="path49" inkscape:connector-curvature="0" class="st1" d="M35.2,8.3l-0.9,0.5l22.4,26.1l0.9-0.5
		C57.6,34.4,35.2,8.3,35.2,8.3z M61.9,39.4L60.9,40l12.8,14.8v-1.6C73.7,53.2,61.9,39.4,61.9,39.4z"/>
	<path id="path51" inkscape:connector-curvature="0" class="st1" d="M34.4,8.7l-0.9,0.5l22.4,26.1l0.9-0.5
		C56.8,34.8,34.4,8.7,34.4,8.7z M61.1,39.8l-0.9,0.6l13.6,15.8v-1.6C73.7,54.6,61.1,39.8,61.1,39.8z"/>
	<path id="path53" inkscape:connector-curvature="0" class="st1" d="M33.7,9.2l-0.9,0.5l22.4,26.1l0.9-0.5
		C56,35.2,33.7,9.2,33.7,9.2z M60.3,40.2l-0.9,0.6l14.3,16.7v-1.6L60.3,40.2z"/>
	<path id="path55" inkscape:connector-curvature="0" class="st1" d="M32.9,9.6l-0.9,0.5l22.4,26.1l0.9-0.5
		C55.2,35.7,32.9,9.6,32.9,9.6z M59.6,40.7l-0.9,0.6l15.1,17.5v-1.6C73.7,57.2,59.6,40.7,59.6,40.7z"/>
	<path id="path57" inkscape:connector-curvature="0" class="st1" d="M32.1,10l-0.9,0.5l22.4,26.1l0.9-0.5C54.5,36.1,32.1,10,32.1,10
		z M58.9,41.1l-0.9,0.6l15.8,18.5v-1.6C73.7,58.5,58.9,41.1,58.9,41.1z"/>
	<path id="path59" inkscape:connector-curvature="0" class="st1" d="M31.3,10.4L30.4,11l22.4,26.1l0.9-0.5
		C53.8,36.5,31.3,10.4,31.3,10.4z M58.1,41.6l-0.9,0.5l16.6,19.3v-1.6L58.1,41.6z"/>
	<path id="path61" inkscape:connector-curvature="0" class="st1" d="M30.6,10.8l-0.9,0.5l22.4,26.2L53,37C53,37,30.6,10.8,30.6,10.8
		z M57.3,42.1l-0.9,0.5l17.4,20.3v-1.7C73.7,61.1,57.3,42.1,57.3,42.1z"/>
	<path id="path63" inkscape:connector-curvature="0" class="st1" d="M29.8,11.2l-0.9,0.5L51.3,38l0.9-0.6L29.8,11.2z M56.5,42.5
		L55.6,43l18.1,21.1v-1.6L56.5,42.5z"/>
	<path id="path65" inkscape:connector-curvature="0" class="st1" d="M29,11.7l-0.9,0.5l22.4,26.2l0.9-0.6L29,11.7z M55.8,42.9
		l-0.9,0.5l18.9,22v-1.6C73.7,63.8,55.8,42.9,55.8,42.9z"/>
	<path id="path67" inkscape:connector-curvature="0" class="st1" d="M28.2,12.1l-0.9,0.5l22.4,26.2l0.9-0.6
		C50.7,38.3,28.2,12.1,28.2,12.1z M55,43.4L54,43.9l19.7,23v-1.7C73.7,65.1,55,43.4,55,43.4z"/>
	<path id="path69" inkscape:connector-curvature="0" class="st1" d="M27.4,12.5l-0.9,0.5l22.4,26.2l0.9-0.6
		C49.9,38.7,27.4,12.5,27.4,12.5z M54.3,43.8l-0.9,0.5l20.4,23.8v-1.6C73.7,66.5,54.3,43.8,54.3,43.8z"/>
	<path id="path71" inkscape:connector-curvature="0" class="st1" d="M26.7,12.9l-1,0.5l22.6,26.3l0.9-0.6
		C49.2,39.1,26.7,12.9,26.7,12.9z M53.5,44.2l-0.9,0.5l21.1,24.7v-1.6L53.5,44.2z"/>
	<path id="path73" inkscape:connector-curvature="0" class="st1" d="M25.9,13.3l-1,0.5l22.7,26.4c0.1-0.2,0.2-0.3,0.3-0.3l0.5-0.3
		C48.4,39.6,25.9,13.3,25.9,13.3z M52.7,44.6l-0.9,0.5l21.8,25.4c0.1-0.3,0.2-0.5,0.2-0.8v-0.7L52.7,44.6L52.7,44.6z"/>
	<path id="path75" inkscape:connector-curvature="0" class="st1" d="M25.1,13.7l-1,0.5l23.2,27v-0.3c0-0.3,0.2-0.6,0.3-0.9
		L25.1,13.7z M52,45.1l-0.7,0.4c-0.1,0-0.2,0.1-0.3,0.1l22.1,25.8c0.3-0.3,0.4-0.7,0.5-1L52,45.1z"/>
	<path id="path77" inkscape:connector-curvature="0" class="st1" d="M24.3,14.2l-1,0.5l24,28v-1.7C47.3,40.9,24.3,14.2,24.3,14.2z
		 M49.5,45.2l23,26.8c0.3-0.2,0.5-0.5,0.8-0.8L51.2,45.5c-0.3,0.2-0.9,0.2-1.2,0L49.5,45.2z"/>
	<path id="path79" inkscape:connector-curvature="0" class="st1" d="M23.6,14.6l-1,0.5l49.2,57.3l0.7-0.3c0.1-0.1,0.2-0.2,0.3-0.3
		L50.1,45.5H50l-2-1.2c-0.2-0.1-0.3-0.3-0.4-0.4l0,0c-0.2-0.3-0.2-0.4-0.3-0.6v-0.9C47.3,42.3,23.6,14.6,23.6,14.6z"/>
	<path id="path81" inkscape:connector-curvature="0" class="st1" d="M22.8,15l-1,0.5L71,72.9l0.9-0.5L22.8,15z"/>
	<path id="path83" inkscape:connector-curvature="0" class="st1" d="M22,15.4l-1,0.5l49.3,57.4l0.9-0.5L22,15.4z"/>
	<path id="path85" inkscape:connector-curvature="0" class="st1" d="M21.2,15.8l-1,0.5l49.3,57.4l0.9-0.5L21.2,15.8z"/>
	<path id="path87" inkscape:connector-curvature="0" class="st1" d="M20.5,16.2l-1,0.5l49.3,57.4l0.9-0.5L20.5,16.2z"/>
	<path id="path89" inkscape:connector-curvature="0" class="st1" d="M19.6,16.7l-0.9,0.5l49.3,57.5l0.9-0.6L19.6,16.7z"/>
	<path id="path91" inkscape:connector-curvature="0" class="st1" d="M18.8,17.1l-0.9,0.5l49.3,57.5l0.9-0.6L18.8,17.1z"/>
	<path id="path93" inkscape:connector-curvature="0" class="st1" d="M18,17.5l-0.9,0.5l49.4,57.5l0.9-0.6L18,17.5z"/>
	<path id="path95" inkscape:connector-curvature="0" class="st1" d="M17.3,17.9l-0.9,0.5L65.7,76l0.9-0.6L17.3,17.9z"/>
	<path id="path97" inkscape:connector-curvature="0" class="st1" d="M16.5,18.3l-0.9,0.5l49.4,57.6l0.9-0.5L16.5,18.3z"/>
	<path id="path99" inkscape:connector-curvature="0" class="st1" d="M15.7,18.8l-0.9,0.5l24,28l0.8,0.5c0.3,0.2,0.7,0.6,0.7,1v0.1
		l23.9,28l0.9-0.5L15.7,18.8z"/>
	<path id="path101" inkscape:connector-curvature="0" class="st1" d="M14.9,19.2L14,19.7L36.5,46l2.8,1.6L14.9,19.2z M40.1,48.5
		c0,0.1,0.1,0.2,0.1,0.3v1.5l23.1,27l0.9-0.5C64.3,76.8,40.1,48.5,40.1,48.5z"/>
	<path id="path103" inkscape:connector-curvature="0" class="st1" d="M14.2,19.6l-0.9,0.5l21.1,24.6l2.8,1.6
		C37.1,46.3,14.2,19.6,14.2,19.6z M40.2,49.9v1.6l22.4,26.2l0.9-0.5L40.2,49.9z"/>
	<path id="path105" inkscape:connector-curvature="0" class="st1" d="M13.4,20l-0.9,0.5l19.7,22.9l2.8,1.6L13.4,20z M40.2,51.2v1.7
		l21.7,25.2l0.9-0.5L40.2,51.2z"/>
	<path id="path107" inkscape:connector-curvature="0" class="st1" d="M12.6,20.4l-0.9,0.5l18.2,21.2l2.8,1.6L12.6,20.4z M40.2,52.6
		v1.6l20.9,24.3l0.9-0.5L40.2,52.6z"/>
	<path id="path109" inkscape:connector-curvature="0" class="st1" d="M11.8,20.8l-0.9,0.5l16.7,19.5l2.8,1.6
		C30.4,42.5,11.8,20.8,11.8,20.8z M40.2,53.9v1.6L60.3,79l0.9-0.5L40.2,53.9z"/>
	<path id="path111" inkscape:connector-curvature="0" class="st1" d="M11,21.3l-0.9,0.5l15.3,17.9l2.8,1.6L11,21.3z M40.2,55.2v1.7
		l19.3,22.6l0.9-0.6C60.5,78.9,40.2,55.2,40.2,55.2z"/>
	<path id="path113" inkscape:connector-curvature="0" class="st1" d="M10.3,21.7l-0.9,0.5l13.8,16.1l2.8,1.6
		C25.9,39.9,10.3,21.7,10.3,21.7z M40.2,56.6v1.6L58.9,80l0.9-0.6C59.8,79.3,40.2,56.6,40.2,56.6z"/>
	<path id="path115" inkscape:connector-curvature="0" class="st1" d="M9.5,22.1l-0.9,0.5l12.3,14.4l2.8,1.6
		C23.7,38.6,9.5,22.1,9.5,22.1z M40.2,57.9v1.6l17.9,20.9l0.9-0.6C59,79.8,40.2,57.9,40.2,57.9z"/>
	<path id="path117" inkscape:connector-curvature="0" class="st2" d="M8.7,22.6l-0.9,0.5l10.9,12.7l2.8,1.6
		C21.5,37.4,8.7,22.6,8.7,22.6z M31.3,50.5l2.2,2.6v-0.9c0-0.2-0.2-0.4-0.3-0.5L31.3,50.5z M40.2,59.1v1.7l17.1,19.9l0.9-0.6
		L40.2,59.1z"/>
	<path id="path119" inkscape:connector-curvature="0" class="st1" d="M7.9,22.9L7,23.4l9.4,11l2.8,1.6C19.2,36.1,7.9,22.9,7.9,22.9z
		 M29.1,49.2l4.5,5.2v-1.6l-1.6-1.9C31.9,50.9,29.1,49.2,29.1,49.2z M40.2,60.5v1.6l16.3,19.1l0.9-0.5
		C57.5,80.7,40.2,60.5,40.2,60.5z"/>
	<path id="path121" inkscape:connector-curvature="0" class="st1" d="M7.2,23.3l-0.9,0.5l8,9.4l2.8,1.6C17,34.8,7.2,23.3,7.2,23.3z
		 M26.8,48l6.7,7.8v-1.6l-3.9-4.6C29.7,49.6,26.8,48,26.8,48z M40.2,61.8v1.6l15.5,18.2l0.9-0.5C56.7,81.2,40.2,61.8,40.2,61.8z"/>
	<path id="path123" inkscape:connector-curvature="0" class="st1" d="M6.4,23.8l-0.9,0.5L12,32l2.8,1.6C14.8,33.5,6.4,23.8,6.4,23.8
		z M24.7,46.7l8.9,10.4v-1.6l-6.1-7.2C27.4,48.3,24.7,46.7,24.7,46.7z M40.2,63.2v1.6l14.8,17.3l0.9-0.5L40.2,63.2z"/>
	<path id="path125" inkscape:connector-curvature="0" class="st1" d="M5.6,24.2l-0.9,0.5l5.1,6l2.8,1.6C12.5,32.2,5.6,24.2,5.6,24.2
		z M22.4,45.4l11.1,12.9v-1.6l-8.4-9.7L22.4,45.4z M40.2,64.5v1.6l14.1,16.4l0.9-0.5C55.2,82,40.2,64.5,40.2,64.5z"/>
	<path id="path127" inkscape:connector-curvature="0" class="st1" d="M4.8,24.6l-0.9,0.5l3.6,4.2l2.8,1.6L4.8,24.6z M20.2,44.1
		l13.4,15.6v-1.6L23,45.8L20.2,44.1z M40.2,65.8v1.6L53.5,83l0.9-0.5L40.2,65.8z"/>
	<path id="path129" inkscape:connector-curvature="0" class="st1" d="M4.1,25.1l-0.9,0.5l2.2,2.5l2.8,1.6
		C8.1,29.7,4.1,25.1,4.1,25.1z M18,42.9L33.6,61v-1.6L20.7,44.5L18,42.9z M40.2,67.2v1.6l12.5,14.6l0.9-0.5
		C53.7,82.9,40.2,67.2,40.2,67.2z"/>
	<path id="path131" inkscape:connector-curvature="0" class="st1" d="M3.3,25.4l-1,0.5L3,26.9l2.8,1.6C5.9,28.4,3.3,25.4,3.3,25.4z
		 M15.7,41.6l17.9,20.8v-1.7l-15-17.5C18.6,43.2,15.7,41.6,15.7,41.6z M40.2,68.5v1.6L52,83.9l0.9-0.6
		C52.9,83.3,40.2,68.5,40.2,68.5z"/>
	<path id="path133" inkscape:connector-curvature="0" class="st1" d="M2.5,25.8l-0.6,0.3l1.7,0.9C3.6,27.1,2.5,25.8,2.5,25.8z
		 M13.5,40.3l20.1,23.4v-1.6L16.3,42C16.3,42,13.5,40.3,13.5,40.3z M40.2,69.8v1.7l11,12.9l0.9-0.6L40.2,69.8z"/>
	<path id="path135" inkscape:connector-curvature="0" class="st1" d="M11.3,39l22.3,26v-1.6L14.1,40.7L11.3,39z M40.2,71.1v1.6
		l10.3,12l0.9-0.6L40.2,71.1z"/>
	<path id="path137" inkscape:connector-curvature="0" class="st1" d="M9.1,37.8l24.5,28.6v-1.7L11.8,39.4L9.1,37.8z M40.2,72.4v1.6
		l9.5,11.1l0.9-0.6L40.2,72.4z"/>
	<path id="path139" inkscape:connector-curvature="0" class="st1" d="M6.8,36.5l26.8,31.2v-1.6l-24-28C9.6,38.1,6.8,36.5,6.8,36.5z
		 M40.2,73.7v1.7l8.7,10.2l0.9-0.5C49.9,85.1,40.2,73.7,40.2,73.7z"/>
	<path id="path141" inkscape:connector-curvature="0" class="st2" d="M4.6,35.2l29,33.8v-1.6L7.3,36.9L4.6,35.2z M40.2,75.1v1.6
		l7.9,9.3l0.9-0.5L40.2,75.1z"/>
	<path id="path143" inkscape:connector-curvature="0" class="st3" d="M2.3,33.9l31.2,36.4v-1.6L5.1,35.6L2.3,33.9z M40.2,76.4v1.6
		l7.3,8.5l0.9-0.5L40.2,76.4z"/>
	<path id="path145" inkscape:connector-curvature="0" class="st4" d="M0.1,32.7l33.5,38.9V70L2.9,34.3C2.9,34.3,0.1,32.7,0.1,32.7z
		 M40.2,77.7v1.7l6.5,7.5l0.9-0.5C47.6,86.4,40.2,77.7,40.2,77.7z"/>
	<path id="path147" inkscape:connector-curvature="0" class="st5" d="M0,32.6v1.2L33.6,73v-1.6L0.7,33L0,32.6z M40.2,79.1v1
		c0,0.2-0.1,0.3-0.2,0.4l5.9,6.8l0.9-0.5C46.9,86.9,40.2,79.1,40.2,79.1z"/>
	<path id="path149" inkscape:connector-curvature="0" class="st6" d="M0,33.5v1.7l33.6,39.1v-1.6L0,33.5z M40.1,80.4
		c-0.1,0.3-0.3,0.7-0.6,0.8l-0.1,0.1l5.7,6.6l0.9-0.5C46.1,87.3,40.1,80.4,40.1,80.4z"/>
	<path id="path151" inkscape:connector-curvature="0" class="st7" d="M0,34.9v1.6l33.6,39.1V74L0,34.9z M39.6,81.1
		C39.6,81.2,39.6,81.2,39.6,81.1l-0.9,0.6l5.7,6.6l0.9-0.5L39.6,81.1L39.6,81.1z"/>
	<path id="path153" inkscape:connector-curvature="0" class="st8" d="M0,36.2v1.6l33.6,39.1v-1.6L0,36.2z M38.9,81.5l-1,0.6l5.8,6.6
		l0.9-0.6L38.9,81.5z"/>
	<path id="path155" inkscape:connector-curvature="0" class="st9" d="M0,37.6v1.6l33.6,39.1v-1.6L0,37.6z M38.2,81.9l-0.6,0.3
		c-0.2,0.1-0.3,0.1-0.5,0.1l5.9,6.8l0.9-0.6L38.2,81.9L38.2,81.9z"/>
	<path id="path157" inkscape:connector-curvature="0" class="st10" d="M0,38.9v1.6l33.6,39.1V78L0,38.9z M35.5,81.9l6.6,7.7l0.9-0.6
		l-5.8-6.6c-0.1,0-0.3,0.1-0.3,0.1h-0.1c-0.3,0-0.4-0.1-0.6-0.2L35.5,81.9L35.5,81.9z"/>
	<path id="path159" inkscape:connector-curvature="0" class="st11" d="M0,40.2v1.7l41.3,48.2l0.9-0.6l-6.2-7.3l-1.9-1
		c-0.3-0.2-0.6-0.6-0.6-1v-0.9L0,40.2z"/>
	<path id="path161" inkscape:connector-curvature="0" class="st12" d="M0,41.5v1.6l40.6,47.3l0.9-0.5L0,41.5z"/>
	<path id="path163" inkscape:connector-curvature="0" class="st13" d="M0,42.8v1.6l39.8,46.4l0.9-0.5L0,42.8z"/>
	<path id="path165" inkscape:connector-curvature="0" class="st14" d="M0,44.1v1.7l39.1,45.5l0.9-0.5L0,44.1z"/>
	<path id="path167" inkscape:connector-curvature="0" class="st15" d="M0,45.5v1.6l38.3,44.6l0.9-0.5L0,45.5z"/>
	<path id="path169" inkscape:connector-curvature="0" class="st16" d="M0,46.8v1.6l37.5,43.7c0.3-0.1,0.5-0.2,0.8-0.3l0.3-0.2
		L0,46.8z"/>
	<path id="path171" inkscape:connector-curvature="0" class="st17" d="M0,48.1v1.7l36.3,42.3c0.2,0,0.3,0,0.5,0c0.3,0,0.5,0,0.8-0.1
		L0,48.1z"/>
	<path id="path173" inkscape:connector-curvature="0" class="st18" d="M0,49.5v1.6l34.4,40.1l1.2,0.7c0.3,0.2,0.7,0.3,1,0.3L0,49.5z
		"/>
	<path id="path175" inkscape:connector-curvature="0" class="st19" d="M0,50.8v1.6l32.1,37.5l2.8,1.6L0,50.8z"/>
	<path id="path177" inkscape:connector-curvature="0" class="st20" d="M0,52.2v1.6l29.9,34.8l2.8,1.6L0,52.2z"/>
	<path id="path179" inkscape:connector-curvature="0" class="st21" d="M0,53.5v1.6l27.6,32.2l2.8,1.6L0,53.5z"/>
	<path id="path181" inkscape:connector-curvature="0" class="st22" d="M0,54.7v1.6L25.4,86l2.8,1.6L0,54.7z"/>
	<path id="path183" inkscape:connector-curvature="0" class="st23" d="M0,56.1v1.6l23,26.8l2.8,1.6L0,56.1z"/>
	<path id="path185" inkscape:connector-curvature="0" class="st24" d="M0,57.4v1.6l20.8,24.3l2.8,1.6L0,57.4z"/>
	<path id="path187" inkscape:connector-curvature="0" class="st25" d="M0,58.7v1.6L18.6,82l2.8,1.6C21.4,83.7,0,58.7,0,58.7z"/>
	<path id="path189" inkscape:connector-curvature="0" class="st26" d="M0,60.1v1.6l16.3,19l2.8,1.6L0,60.1z"/>
	<path id="path191" inkscape:connector-curvature="0" class="st27" d="M0,61.4V63l14.1,16.4l2.8,1.6L0,61.4z"/>
	<path id="path193" inkscape:connector-curvature="0" class="st28" d="M0,62.7v1.7l11.8,13.7l2.8,1.6L0,62.7z"/>
	<path id="path195" inkscape:connector-curvature="0" class="st29" d="M0,64.1v1.6l9.5,11.1l2.8,1.6L0,64.1z"/>
	<path id="path197" inkscape:connector-curvature="0" class="st30" d="M0,65.4V67l7.3,8.5l2.8,1.6L0,65.4z"/>
	<path id="path199" inkscape:connector-curvature="0" class="st31" d="M0,66.7v1.7l5,5.8l2.8,1.6L0,66.7z"/>
	<path id="path201" inkscape:connector-curvature="0" class="st32" d="M0,68v1.6l2.8,3.2l2.8,1.6L0,68z"/>
	<path id="path203" inkscape:connector-curvature="0" class="st33" d="M0,69.3v0.4c0,0.9,0.6,1.9,1.3,2.3l2.1,1.1
		C3.4,73.2,0,69.3,0,69.3z"/>
	<path id="path205" inkscape:connector-curvature="0" class="st34" d="M0.5,71.3c0.2,0.2,0.3,0.3,0.4,0.4L0.5,71.3z"/>
</g>
</svg>
