<?xml version="1.0" encoding="utf-8"?>
<!-- Generator: Adobe Illustrator 26.5.0, SVG Export Plug-In . SVG Version: 6.00 Build 0)  -->
<svg version="1.1"
	 id="svg2" xmlns:dc="http://purl.org/dc/elements/1.1/" xmlns:cc="http://creativecommons.org/ns#" xmlns:sodipodi="http://sodipodi.sourceforge.net/DTD/sodipodi-0.dtd" xmlns:inkscape="http://www.inkscape.org/namespaces/inkscape" xmlns:rdf="http://www.w3.org/1999/02/22-rdf-syntax-ns#" xmlns:svg="http://www.w3.org/2000/svg" inkscape:version="0.48.1 " sodipodi:docname="AJAX.svg"
	 xmlns="http://www.w3.org/2000/svg" xmlns:xlink="http://www.w3.org/1999/xlink" x="0px" y="0px" width="200px" height="100px"
	 viewBox="0 0 200 100" style="enable-background:new 0 0 200 100;" xml:space="preserve">
<style type="text/css">
	.st0{fill:#FF5900;}
	.st1{fill:#2A007C;}
</style>
<sodipodi:namedview  bordercolor="#666666" borderopacity="1" fit-margin-bottom="0" fit-margin-left="0" fit-margin-right="0.2" fit-margin-top="0" gridtolerance="10" guidetolerance="10" id="namedview30" inkscape:current-layer="g6" inkscape:cx="50.329457" inkscape:cy="13.826428" inkscape:pageopacity="0" inkscape:pageshadow="2" inkscape:window-height="1004" inkscape:window-maximized="1" inkscape:window-width="1280" inkscape:window-x="-8" inkscape:window-y="-8" inkscape:zoom="10.026645" objecttolerance="10" pagecolor="#ffffff" showgrid="false">
	</sodipodi:namedview>
<g id="g6" transform="translate(-0.81,-0.35400034)">
	<polygon id="polygon10" class="st0" points="162.1,25.6 170.1,34.5 177.8,25.6 194.3,25.6 178.2,43.7 194.5,62 177.4,62 
		169.4,53.1 161.6,62 145,62 161.2,43.8 145,25.6 	"/>
	<polygon id="polygon12" class="st0" points="145,25.6 145,37.9 126.7,37.9 126.7,49.2 145,49.2 145,62 113.3,62 113.3,4.7 145,4.7 
		145,17.5 126.7,17.5 126.7,25.6 	"/>
	<path id="path14" inkscape:connector-curvature="0" class="st1" d="M99.8,4.7v23.4h-0.1c-3-3.4-6.7-4.6-11-4.6
		c-8.8,0-15.5,6-17.8,13.9c-2.7-8.7-9.5-14.1-19.7-14.1c-8.3,0-14.8,3.7-18.2,9.7v-7.5H16v-8.1h18.6V4.7H0.8V62H16V37.9h15.2
		c-0.5,1.8-0.7,3.7-0.7,5.7c0,11.9,9.1,20.3,20.8,20.3c9.8,0,16.2-4.6,19.7-13h-13c-1.8,2.5-3.1,3.3-6.6,3.3c-4.1,0-7.6-3.6-7.6-7.8
		h26.5c1.2,9.5,8.5,17.7,18.7,17.7c4.4,0,8.4-2.2,10.8-5.8h0.1V62h13.4V4.7H99.8z M44.1,38.1c0.8-3.6,3.7-6,7.2-6
		c3.9,0,6.6,2.3,7.3,6C58.8,38.1,44.1,38.1,44.1,38.1z M91.7,53.3c-4.9,0-8-4.6-8-9.4c0-5.1,2.7-10.1,8-10.1c5.5,0,7.7,4.9,7.7,10.1
		C99.5,48.7,97.1,53.3,91.7,53.3z"/>
	<path id="path16" inkscape:connector-curvature="0" class="st1" d="M113.3,90.6V70.1h11.3v1.5h-9.5v7.6h9.1v1.5h-9.1v8.4h9.9v1.5
		L113.3,90.6L113.3,90.6z"/>
	<path id="path18" inkscape:connector-curvature="0" class="st1" d="M126.4,90.6l5.5-7.4l-5.2-7h2.1l4.3,5.7l4.2-5.7h2.1l-5.3,7
		l5.6,7.4h-2.2l-4.6-6.1l-4.4,6.1C128.5,90.6,126.4,90.6,126.4,90.6z"/>
	<path id="path20" inkscape:connector-curvature="0" class="st1" d="M143.2,96h-1.7V80.6c0-1.4,0-2.9-0.1-4.3h1.7l0.1,2.2
		c1.1-1.7,2.5-2.5,4.6-2.5c4.4,0,6.3,3.7,6.3,7.5c0,3.9-1.9,7.5-6.3,7.5c-2,0-3.5-0.8-4.6-2.4C143.2,88.5,143.2,96,143.2,96z
		 M152.2,83.4c0-3.1-1.3-6.1-4.7-6.1c-3.2,0-4.4,2.6-4.4,6.1c0,3.4,1.2,6.1,4.4,6.1C151,89.5,152.2,86.5,152.2,83.4z"/>
	<path id="path22" inkscape:connector-curvature="0" class="st1" d="M163,77.6c-2.9,0-3.9,2.4-3.9,4.9v8.1h-1.7V80.5
		c0-1.4,0-2.8-0.1-4.2h1.7l0.1,2.1c0.9-1.6,2.3-2.4,4.2-2.4c0.3,0,0.5,0,0.8,0.1v1.7C163.7,77.7,163.4,77.6,163,77.6z"/>
	<path id="path24" inkscape:connector-curvature="0" class="st1" d="M166.2,83.7c0,3.2,1.5,5.9,4.7,5.9c2.4,0,3.6-1.6,4-3.2h1.6
		c-0.8,3-2.6,4.5-5.9,4.5c-4.4,0-6.3-3.2-6.3-7.3c0-4.1,2-7.8,6.5-7.8c4.6,0,5.8,4,5.8,7.8C176.7,83.7,166.2,83.7,166.2,83.7z
		 M166.3,82.4h8.6c0-2.8-1.3-5.2-4.1-5.2C168.3,77.2,166.6,79.1,166.3,82.4z"/>
	<path id="path26" inkscape:connector-curvature="0" class="st1" d="M183.4,90.9c-2.9,0-5.2-1.4-5.2-4.5h1.7c0,2.2,1.4,3.2,3.5,3.2
		c2,0,3.5-0.9,3.5-2.9c0-1.7-1.8-2.2-3.7-2.7c-2.3-0.7-4.7-1.4-4.7-4.1c0-3.1,2.6-4,5-4c2.8,0,4.8,1.1,4.9,4h-1.7
		c-0.1-1.7-1.3-2.7-3.1-2.7c-1.4,0-3.2,0.6-3.2,2.4c0,1.7,1.8,2.2,3.6,2.7c2.3,0.6,4.8,1.3,4.8,4.1
		C188.8,89.8,186.3,90.9,183.4,90.9z"/>
	<path id="path28" inkscape:connector-curvature="0" class="st1" d="M195.4,90.9c-2.9,0-5.2-1.4-5.2-4.5h1.7c0,2.2,1.4,3.2,3.5,3.2
		c2,0,3.5-0.9,3.5-2.9c0-1.7-1.8-2.2-3.7-2.7c-2.3-0.7-4.7-1.4-4.7-4.1c0-3.1,2.6-4,5-4c2.8,0,4.8,1.1,4.9,4h-1.7
		c-0.1-1.7-1.3-2.7-3.1-2.7c-1.4,0-3.2,0.6-3.2,2.4c0,1.7,1.8,2.2,3.6,2.7c2.3,0.6,4.8,1.3,4.8,4.1
		C200.8,89.8,198.3,90.9,195.4,90.9L195.4,90.9z"/>
</g>
</svg>
